ISO-10303-21;
HEADER;
/* Generated by software containing ST-Developer
 * from STEP Tools, Inc. (www.steptools.com) 
 */

FILE_DESCRIPTION(
/* description */ (''),
/* implementation_level */ '2;1');

FILE_NAME(
/* name */ 'J4-connector01.step',
/* time_stamp */ '2026-10-05T21:02:48+11:00',
/* author */ (''),
/* organization */ (''),
/* preprocessor_version */ 'ST-DEVELOPER v20.2',
/* originating_system */ 'Autodesk Translation Framework v15.15.0.0',
/* authorisation */ '');

FILE_SCHEMA (('AUTOMOTIVE_DESIGN { 1 0 10303 214 3 1 1 }'));
ENDSEC;

DATA;
#10=MECHANICAL_DESIGN_GEOMETRIC_PRESENTATION_REPRESENTATION('',(#13),#1401);
#11=SHAPE_REPRESENTATION_RELATIONSHIP('SRR','None',#1407,#12);
#12=ADVANCED_BREP_SHAPE_REPRESENTATION('',(#14),#1400);
#13=STYLED_ITEM('',(#1416),#14);
#14=MANIFOLD_SOLID_BREP('Body1',#775);
#15=B_SPLINE_CURVE_WITH_KNOTS('',3,(#1178,#1179,#1180,#1181,#1182,#1183),
 .UNSPECIFIED.,.F.,.F.,(4,2,4),(0.252766120019255,0.29099773330059,0.349779142867044),
 .UNSPECIFIED.);
#16=B_SPLINE_CURVE_WITH_KNOTS('',3,(#1197,#1198,#1199,#1200,#1201,#1202),
 .UNSPECIFIED.,.F.,.F.,(4,2,4),(0.,0.0587814095664541,0.097013022847789),
 .UNSPECIFIED.);
#17=B_SPLINE_CURVE_WITH_KNOTS('',3,(#1216,#1217,#1218,#1219,#1220,#1221),
 .UNSPECIFIED.,.F.,.F.,(4,2,4),(0.,0.0587814095664542,0.0970130228477891),
 .UNSPECIFIED.);
#18=B_SPLINE_CURVE_WITH_KNOTS('',3,(#1238,#1239,#1240,#1241,#1242,#1243),
 .UNSPECIFIED.,.F.,.F.,(4,2,4),(0.252766120019255,0.29099773330059,0.349779142867044),
 .UNSPECIFIED.);
#19=B_SPLINE_CURVE_WITH_KNOTS('',3,(#1296,#1297,#1298,#1299,#1300,#1301,
#1302,#1303),.UNSPECIFIED.,.F.,.F.,(4,2,2,4),(0.756363488229427,0.945444542080816,
1.13452559593221,1.26192300164502),.UNSPECIFIED.);
#20=B_SPLINE_CURVE_WITH_KNOTS('',3,(#1304,#1305,#1306,#1307,#1308,#1309,
#1310,#1311),.UNSPECIFIED.,.F.,.F.,(4,2,2,4),(0.250803974813838,0.378201380526649,
0.567282434378038,0.756363488229427),.UNSPECIFIED.);
#21=B_SPLINE_CURVE_WITH_KNOTS('',3,(#1316,#1317,#1318,#1319,#1320,#1321,
#1322,#1323,#1324,#1325,#1326,#1327,#1328,#1329),.UNSPECIFIED.,.F.,.F.,
(4,2,2,2,2,2,4),(0.250803974813838,0.378201380526649,0.567282434378038,
0.756363488229427,0.945444542080817,1.13452559593221,1.26192300164502),
 .UNSPECIFIED.);
#22=TOROIDAL_SURFACE('',#792,1.,0.5);
#23=TOROIDAL_SURFACE('',#800,1.,0.5);
#24=TOROIDAL_SURFACE('',#808,1.,0.5);
#25=TOROIDAL_SURFACE('',#817,1.,0.5);
#26=SPHERICAL_SURFACE('',#786,0.499999999999998);
#27=SPHERICAL_SURFACE('',#794,0.499999999999999);
#28=SPHERICAL_SURFACE('',#802,0.499999999999999);
#29=SPHERICAL_SURFACE('',#811,0.499999999999998);
#30=FACE_BOUND('',#117,.T.);
#31=FACE_BOUND('',#119,.T.);
#32=FACE_BOUND('',#140,.T.);
#33=FACE_BOUND('',#141,.T.);
#34=FACE_BOUND('',#142,.T.);
#35=FACE_BOUND('',#143,.T.);
#36=FACE_BOUND('',#144,.T.);
#37=FACE_BOUND('',#145,.T.);
#38=FACE_BOUND('',#146,.T.);
#39=FACE_BOUND('',#156,.T.);
#40=FACE_BOUND('',#158,.T.);
#41=FACE_BOUND('',#160,.T.);
#42=FACE_BOUND('',#162,.T.);
#43=FACE_BOUND('',#164,.T.);
#44=FACE_BOUND('',#166,.T.);
#45=FACE_BOUND('',#173,.T.);
#46=FACE_BOUND('',#174,.T.);
#47=FACE_BOUND('',#175,.T.);
#48=FACE_BOUND('',#176,.T.);
#49=FACE_BOUND('',#177,.T.);
#50=FACE_BOUND('',#178,.T.);
#51=PLANE('',#780);
#52=PLANE('',#783);
#53=PLANE('',#822);
#54=PLANE('',#824);
#55=PLANE('',#825);
#56=PLANE('',#835);
#57=PLANE('',#836);
#58=PLANE('',#838);
#59=PLANE('',#847);
#60=PLANE('',#850);
#61=PLANE('',#853);
#62=PLANE('',#856);
#63=PLANE('',#859);
#64=PLANE('',#861);
#65=PLANE('',#874);
#66=FACE_OUTER_BOUND('',#115,.T.);
#67=FACE_OUTER_BOUND('',#116,.T.);
#68=FACE_OUTER_BOUND('',#118,.T.);
#69=FACE_OUTER_BOUND('',#120,.T.);
#70=FACE_OUTER_BOUND('',#121,.T.);
#71=FACE_OUTER_BOUND('',#122,.T.);
#72=FACE_OUTER_BOUND('',#123,.T.);
#73=FACE_OUTER_BOUND('',#124,.T.);
#74=FACE_OUTER_BOUND('',#125,.T.);
#75=FACE_OUTER_BOUND('',#126,.T.);
#76=FACE_OUTER_BOUND('',#127,.T.);
#77=FACE_OUTER_BOUND('',#128,.T.);
#78=FACE_OUTER_BOUND('',#129,.T.);
#79=FACE_OUTER_BOUND('',#130,.T.);
#80=FACE_OUTER_BOUND('',#131,.T.);
#81=FACE_OUTER_BOUND('',#132,.T.);
#82=FACE_OUTER_BOUND('',#133,.T.);
#83=FACE_OUTER_BOUND('',#134,.T.);
#84=FACE_OUTER_BOUND('',#135,.T.);
#85=FACE_OUTER_BOUND('',#136,.T.);
#86=FACE_OUTER_BOUND('',#137,.T.);
#87=FACE_OUTER_BOUND('',#138,.T.);
#88=FACE_OUTER_BOUND('',#139,.T.);
#89=FACE_OUTER_BOUND('',#147,.T.);
#90=FACE_OUTER_BOUND('',#148,.T.);
#91=FACE_OUTER_BOUND('',#149,.T.);
#92=FACE_OUTER_BOUND('',#150,.T.);
#93=FACE_OUTER_BOUND('',#151,.T.);
#94=FACE_OUTER_BOUND('',#152,.T.);
#95=FACE_OUTER_BOUND('',#153,.T.);
#96=FACE_OUTER_BOUND('',#154,.T.);
#97=FACE_OUTER_BOUND('',#155,.T.);
#98=FACE_OUTER_BOUND('',#157,.T.);
#99=FACE_OUTER_BOUND('',#159,.T.);
#100=FACE_OUTER_BOUND('',#161,.T.);
#101=FACE_OUTER_BOUND('',#163,.T.);
#102=FACE_OUTER_BOUND('',#165,.T.);
#103=FACE_OUTER_BOUND('',#167,.T.);
#104=FACE_OUTER_BOUND('',#168,.T.);
#105=FACE_OUTER_BOUND('',#169,.T.);
#106=FACE_OUTER_BOUND('',#170,.T.);
#107=FACE_OUTER_BOUND('',#171,.T.);
#108=FACE_OUTER_BOUND('',#172,.T.);
#109=FACE_OUTER_BOUND('',#179,.T.);
#110=FACE_OUTER_BOUND('',#180,.T.);
#111=FACE_OUTER_BOUND('',#181,.T.);
#112=FACE_OUTER_BOUND('',#182,.T.);
#113=FACE_OUTER_BOUND('',#183,.T.);
#114=FACE_OUTER_BOUND('',#184,.T.);
#115=EDGE_LOOP('',(#492,#493,#494,#495));
#116=EDGE_LOOP('',(#496,#497,#498,#499,#500,#501));
#117=EDGE_LOOP('',(#502));
#118=EDGE_LOOP('',(#503,#504,#505,#506,#507,#508));
#119=EDGE_LOOP('',(#509));
#120=EDGE_LOOP('',(#510,#511,#512));
#121=EDGE_LOOP('',(#513,#514,#515,#516));
#122=EDGE_LOOP('',(#517,#518,#519,#520));
#123=EDGE_LOOP('',(#521,#522,#523));
#124=EDGE_LOOP('',(#524,#525,#526,#527));
#125=EDGE_LOOP('',(#528,#529,#530,#531));
#126=EDGE_LOOP('',(#532,#533,#534));
#127=EDGE_LOOP('',(#535,#536,#537,#538));
#128=EDGE_LOOP('',(#539,#540,#541,#542));
#129=EDGE_LOOP('',(#543,#544,#545,#546));
#130=EDGE_LOOP('',(#547,#548,#549));
#131=EDGE_LOOP('',(#550,#551,#552,#553));
#132=EDGE_LOOP('',(#554,#555,#556,#557));
#133=EDGE_LOOP('',(#558,#559,#560,#561));
#134=EDGE_LOOP('',(#562,#563,#564,#565));
#135=EDGE_LOOP('',(#566,#567,#568,#569));
#136=EDGE_LOOP('',(#570,#571,#572,#573));
#137=EDGE_LOOP('',(#574,#575,#576,#577));
#138=EDGE_LOOP('',(#578,#579,#580,#581));
#139=EDGE_LOOP('',(#582,#583,#584,#585,#586,#587,#588,#589));
#140=EDGE_LOOP('',(#590));
#141=EDGE_LOOP('',(#591));
#142=EDGE_LOOP('',(#592));
#143=EDGE_LOOP('',(#593));
#144=EDGE_LOOP('',(#594));
#145=EDGE_LOOP('',(#595));
#146=EDGE_LOOP('',(#596,#597,#598,#599,#600,#601,#602,#603));
#147=EDGE_LOOP('',(#604,#605,#606,#607));
#148=EDGE_LOOP('',(#608,#609,#610,#611));
#149=EDGE_LOOP('',(#612,#613));
#150=EDGE_LOOP('',(#614,#615));
#151=EDGE_LOOP('',(#616,#617,#618,#619,#620));
#152=EDGE_LOOP('',(#621,#622,#623,#624,#625,#626,#627,#628));
#153=EDGE_LOOP('',(#629,#630,#631,#632));
#154=EDGE_LOOP('',(#633,#634,#635,#636));
#155=EDGE_LOOP('',(#637));
#156=EDGE_LOOP('',(#638));
#157=EDGE_LOOP('',(#639));
#158=EDGE_LOOP('',(#640));
#159=EDGE_LOOP('',(#641));
#160=EDGE_LOOP('',(#642));
#161=EDGE_LOOP('',(#643));
#162=EDGE_LOOP('',(#644));
#163=EDGE_LOOP('',(#645));
#164=EDGE_LOOP('',(#646));
#165=EDGE_LOOP('',(#647));
#166=EDGE_LOOP('',(#648));
#167=EDGE_LOOP('',(#649,#650,#651,#652));
#168=EDGE_LOOP('',(#653,#654,#655,#656));
#169=EDGE_LOOP('',(#657,#658,#659,#660));
#170=EDGE_LOOP('',(#661,#662,#663,#664));
#171=EDGE_LOOP('',(#665,#666,#667,#668));
#172=EDGE_LOOP('',(#669));
#173=EDGE_LOOP('',(#670));
#174=EDGE_LOOP('',(#671));
#175=EDGE_LOOP('',(#672));
#176=EDGE_LOOP('',(#673));
#177=EDGE_LOOP('',(#674));
#178=EDGE_LOOP('',(#675));
#179=EDGE_LOOP('',(#676,#677,#678,#679));
#180=EDGE_LOOP('',(#680,#681,#682,#683));
#181=EDGE_LOOP('',(#684,#685,#686,#687));
#182=EDGE_LOOP('',(#688,#689,#690,#691));
#183=EDGE_LOOP('',(#692,#693,#694,#695));
#184=EDGE_LOOP('',(#696,#697,#698,#699));
#185=LINE('',#1138,#227);
#186=LINE('',#1145,#228);
#187=LINE('',#1147,#229);
#188=LINE('',#1149,#230);
#189=LINE('',#1152,#231);
#190=LINE('',#1158,#232);
#191=LINE('',#1162,#233);
#192=LINE('',#1164,#234);
#193=LINE('',#1165,#235);
#194=LINE('',#1175,#236);
#195=LINE('',#1194,#237);
#196=LINE('',#1213,#238);
#197=LINE('',#1224,#239);
#198=LINE('',#1225,#240);
#199=LINE('',#1235,#241);
#200=LINE('',#1246,#242);
#201=LINE('',#1248,#243);
#202=LINE('',#1249,#244);
#203=LINE('',#1251,#245);
#204=LINE('',#1253,#246);
#205=LINE('',#1255,#247);
#206=LINE('',#1260,#248);
#207=LINE('',#1264,#249);
#208=LINE('',#1266,#250);
#209=LINE('',#1268,#251);
#210=LINE('',#1272,#252);
#211=LINE('',#1273,#253);
#212=LINE('',#1286,#254);
#213=LINE('',#1288,#255);
#214=LINE('',#1314,#256);
#215=LINE('',#1335,#257);
#216=LINE('',#1368,#258);
#217=LINE('',#1372,#259);
#218=LINE('',#1376,#260);
#219=LINE('',#1380,#261);
#220=LINE('',#1384,#262);
#221=LINE('',#1387,#263);
#222=LINE('',#1389,#264);
#223=LINE('',#1391,#265);
#224=LINE('',#1393,#266);
#225=LINE('',#1395,#267);
#226=LINE('',#1397,#268);
#227=VECTOR('',#887,2.3);
#228=VECTOR('',#894,10.);
#229=VECTOR('',#895,10.);
#230=VECTOR('',#896,10.);
#231=VECTOR('',#899,10.);
#232=VECTOR('',#904,10.);
#233=VECTOR('',#907,10.);
#234=VECTOR('',#908,10.);
#235=VECTOR('',#909,10.);
#236=VECTOR('',#922,10.);
#237=VECTOR('',#939,10.);
#238=VECTOR('',#956,10.);
#239=VECTOR('',#963,10.);
#240=VECTOR('',#964,10.);
#241=VECTOR('',#977,10.);
#242=VECTOR('',#984,10.);
#243=VECTOR('',#987,10.);
#244=VECTOR('',#988,10.);
#245=VECTOR('',#991,10.);
#246=VECTOR('',#994,10.);
#247=VECTOR('',#997,10.);
#248=VECTOR('',#1002,10.);
#249=VECTOR('',#1005,10.);
#250=VECTOR('',#1006,10.);
#251=VECTOR('',#1007,10.);
#252=VECTOR('',#1010,10.);
#253=VECTOR('',#1011,10.);
#254=VECTOR('',#1024,10.);
#255=VECTOR('',#1027,10.);
#256=VECTOR('',#1042,21.5);
#257=VECTOR('',#1051,1.6);
#258=VECTOR('',#1092,1.6);
#259=VECTOR('',#1097,1.6);
#260=VECTOR('',#1102,1.6);
#261=VECTOR('',#1107,1.6);
#262=VECTOR('',#1112,1.6);
#263=VECTOR('',#1117,3.);
#264=VECTOR('',#1120,3.);
#265=VECTOR('',#1123,3.);
#266=VECTOR('',#1126,3.);
#267=VECTOR('',#1129,3.);
#268=VECTOR('',#1132,3.);
#269=CIRCLE('',#778,2.3);
#270=CIRCLE('',#779,2.3);
#271=CIRCLE('',#781,1.);
#272=CIRCLE('',#782,1.);
#273=CIRCLE('',#784,1.);
#274=CIRCLE('',#785,1.);
#275=CIRCLE('',#787,0.5);
#276=CIRCLE('',#788,0.499999999999998);
#277=CIRCLE('',#789,0.5);
#278=CIRCLE('',#791,0.5);
#279=CIRCLE('',#793,0.5);
#280=CIRCLE('',#795,0.5);
#281=CIRCLE('',#796,0.499999999999999);
#282=CIRCLE('',#797,0.5);
#283=CIRCLE('',#799,0.499999999999998);
#284=CIRCLE('',#801,0.5);
#285=CIRCLE('',#803,0.5);
#286=CIRCLE('',#804,0.499999999999999);
#287=CIRCLE('',#805,0.5);
#288=CIRCLE('',#807,0.499999999999998);
#289=CIRCLE('',#809,0.5);
#290=CIRCLE('',#812,0.5);
#291=CIRCLE('',#813,0.499999999999998);
#292=CIRCLE('',#814,0.5);
#293=CIRCLE('',#816,0.5);
#294=CIRCLE('',#818,0.5);
#295=CIRCLE('',#826,21.5);
#296=CIRCLE('',#827,21.5);
#297=CIRCLE('',#828,3.);
#298=CIRCLE('',#829,3.);
#299=CIRCLE('',#830,3.);
#300=CIRCLE('',#831,3.);
#301=CIRCLE('',#832,3.);
#302=CIRCLE('',#833,3.);
#303=CIRCLE('',#837,5.);
#304=CIRCLE('',#839,5.);
#305=CIRCLE('',#842,21.5);
#306=CIRCLE('',#845,1.6);
#307=CIRCLE('',#846,1.6);
#308=CIRCLE('',#848,3.);
#309=CIRCLE('',#849,1.6);
#310=CIRCLE('',#851,3.);
#311=CIRCLE('',#852,1.6);
#312=CIRCLE('',#854,3.);
#313=CIRCLE('',#855,1.6);
#314=CIRCLE('',#857,3.);
#315=CIRCLE('',#858,1.6);
#316=CIRCLE('',#860,3.);
#317=CIRCLE('',#862,3.);
#318=CIRCLE('',#863,1.6);
#319=CIRCLE('',#865,1.6);
#320=CIRCLE('',#867,1.6);
#321=CIRCLE('',#869,1.6);
#322=CIRCLE('',#871,1.6);
#323=CIRCLE('',#873,1.6);
#324=VERTEX_POINT('',#1135);
#325=VERTEX_POINT('',#1137);
#326=VERTEX_POINT('',#1141);
#327=VERTEX_POINT('',#1142);
#328=VERTEX_POINT('',#1144);
#329=VERTEX_POINT('',#1146);
#330=VERTEX_POINT('',#1148);
#331=VERTEX_POINT('',#1150);
#332=VERTEX_POINT('',#1154);
#333=VERTEX_POINT('',#1155);
#334=VERTEX_POINT('',#1157);
#335=VERTEX_POINT('',#1159);
#336=VERTEX_POINT('',#1161);
#337=VERTEX_POINT('',#1163);
#338=VERTEX_POINT('',#1167);
#339=VERTEX_POINT('',#1168);
#340=VERTEX_POINT('',#1173);
#341=VERTEX_POINT('',#1177);
#342=VERTEX_POINT('',#1186);
#343=VERTEX_POINT('',#1188);
#344=VERTEX_POINT('',#1192);
#345=VERTEX_POINT('',#1196);
#346=VERTEX_POINT('',#1205);
#347=VERTEX_POINT('',#1207);
#348=VERTEX_POINT('',#1211);
#349=VERTEX_POINT('',#1215);
#350=VERTEX_POINT('',#1227);
#351=VERTEX_POINT('',#1228);
#352=VERTEX_POINT('',#1233);
#353=VERTEX_POINT('',#1237);
#354=VERTEX_POINT('',#1258);
#355=VERTEX_POINT('',#1259);
#356=VERTEX_POINT('',#1261);
#357=VERTEX_POINT('',#1263);
#358=VERTEX_POINT('',#1265);
#359=VERTEX_POINT('',#1267);
#360=VERTEX_POINT('',#1269);
#361=VERTEX_POINT('',#1271);
#362=VERTEX_POINT('',#1274);
#363=VERTEX_POINT('',#1276);
#364=VERTEX_POINT('',#1278);
#365=VERTEX_POINT('',#1280);
#366=VERTEX_POINT('',#1282);
#367=VERTEX_POINT('',#1284);
#368=VERTEX_POINT('',#1295);
#369=VERTEX_POINT('',#1313);
#370=VERTEX_POINT('',#1332);
#371=VERTEX_POINT('',#1334);
#372=VERTEX_POINT('',#1338);
#373=VERTEX_POINT('',#1340);
#374=VERTEX_POINT('',#1343);
#375=VERTEX_POINT('',#1345);
#376=VERTEX_POINT('',#1348);
#377=VERTEX_POINT('',#1350);
#378=VERTEX_POINT('',#1353);
#379=VERTEX_POINT('',#1355);
#380=VERTEX_POINT('',#1358);
#381=VERTEX_POINT('',#1361);
#382=VERTEX_POINT('',#1363);
#383=VERTEX_POINT('',#1366);
#384=VERTEX_POINT('',#1370);
#385=VERTEX_POINT('',#1374);
#386=VERTEX_POINT('',#1378);
#387=VERTEX_POINT('',#1382);
#388=EDGE_CURVE('',#324,#324,#269,.T.);
#389=EDGE_CURVE('',#324,#325,#185,.T.);
#390=EDGE_CURVE('',#325,#325,#270,.T.);
#391=EDGE_CURVE('',#326,#327,#271,.T.);
#392=EDGE_CURVE('',#328,#326,#186,.T.);
#393=EDGE_CURVE('',#329,#328,#187,.T.);
#394=EDGE_CURVE('',#330,#329,#188,.T.);
#395=EDGE_CURVE('',#331,#330,#272,.T.);
#396=EDGE_CURVE('',#327,#331,#189,.T.);
#397=EDGE_CURVE('',#332,#333,#273,.T.);
#398=EDGE_CURVE('',#334,#332,#190,.T.);
#399=EDGE_CURVE('',#335,#334,#274,.T.);
#400=EDGE_CURVE('',#336,#335,#191,.T.);
#401=EDGE_CURVE('',#337,#336,#192,.T.);
#402=EDGE_CURVE('',#333,#337,#193,.T.);
#403=EDGE_CURVE('',#338,#339,#275,.F.);
#404=EDGE_CURVE('',#337,#338,#276,.F.);
#405=EDGE_CURVE('',#339,#337,#277,.F.);
#406=EDGE_CURVE('',#340,#333,#278,.T.);
#407=EDGE_CURVE('',#338,#340,#194,.T.);
#408=EDGE_CURVE('',#341,#332,#15,.F.);
#409=EDGE_CURVE('',#340,#341,#279,.T.);
#410=EDGE_CURVE('',#336,#342,#280,.F.);
#411=EDGE_CURVE('',#343,#336,#281,.F.);
#412=EDGE_CURVE('',#342,#343,#282,.F.);
#413=EDGE_CURVE('',#335,#344,#283,.T.);
#414=EDGE_CURVE('',#344,#343,#195,.T.);
#415=EDGE_CURVE('',#334,#345,#16,.F.);
#416=EDGE_CURVE('',#345,#344,#284,.T.);
#417=EDGE_CURVE('',#328,#346,#285,.F.);
#418=EDGE_CURVE('',#347,#328,#286,.F.);
#419=EDGE_CURVE('',#346,#347,#287,.F.);
#420=EDGE_CURVE('',#326,#348,#288,.T.);
#421=EDGE_CURVE('',#348,#347,#196,.T.);
#422=EDGE_CURVE('',#327,#349,#17,.F.);
#423=EDGE_CURVE('',#349,#348,#289,.T.);
#424=EDGE_CURVE('',#339,#346,#197,.T.);
#425=EDGE_CURVE('',#347,#338,#198,.T.);
#426=EDGE_CURVE('',#350,#351,#290,.F.);
#427=EDGE_CURVE('',#329,#350,#291,.F.);
#428=EDGE_CURVE('',#351,#329,#292,.F.);
#429=EDGE_CURVE('',#352,#330,#293,.T.);
#430=EDGE_CURVE('',#350,#352,#199,.T.);
#431=EDGE_CURVE('',#353,#331,#18,.F.);
#432=EDGE_CURVE('',#352,#353,#294,.T.);
#433=EDGE_CURVE('',#346,#351,#200,.T.);
#434=EDGE_CURVE('',#351,#342,#201,.T.);
#435=EDGE_CURVE('',#343,#350,#202,.T.);
#436=EDGE_CURVE('',#342,#339,#203,.T.);
#437=EDGE_CURVE('',#340,#348,#204,.T.);
#438=EDGE_CURVE('',#349,#341,#205,.T.);
#439=EDGE_CURVE('',#354,#355,#206,.T.);
#440=EDGE_CURVE('',#355,#356,#295,.T.);
#441=EDGE_CURVE('',#356,#357,#207,.T.);
#442=EDGE_CURVE('',#358,#357,#208,.T.);
#443=EDGE_CURVE('',#358,#359,#209,.T.);
#444=EDGE_CURVE('',#359,#360,#296,.T.);
#445=EDGE_CURVE('',#360,#361,#210,.T.);
#446=EDGE_CURVE('',#354,#361,#211,.T.);
#447=EDGE_CURVE('',#362,#362,#297,.T.);
#448=EDGE_CURVE('',#363,#363,#298,.T.);
#449=EDGE_CURVE('',#364,#364,#299,.T.);
#450=EDGE_CURVE('',#365,#365,#300,.T.);
#451=EDGE_CURVE('',#366,#366,#301,.T.);
#452=EDGE_CURVE('',#367,#367,#302,.T.);
#453=EDGE_CURVE('',#345,#353,#212,.T.);
#454=EDGE_CURVE('',#352,#344,#213,.T.);
#455=EDGE_CURVE('',#358,#357,#303,.T.);
#456=EDGE_CURVE('',#354,#361,#304,.T.);
#457=EDGE_CURVE('',#368,#360,#19,.T.);
#458=EDGE_CURVE('',#355,#368,#20,.T.);
#459=EDGE_CURVE('',#368,#369,#214,.T.);
#460=EDGE_CURVE('',#369,#369,#305,.T.);
#461=EDGE_CURVE('',#359,#356,#21,.T.);
#462=EDGE_CURVE('',#370,#370,#306,.T.);
#463=EDGE_CURVE('',#370,#371,#215,.T.);
#464=EDGE_CURVE('',#371,#371,#307,.T.);
#465=EDGE_CURVE('',#372,#372,#308,.T.);
#466=EDGE_CURVE('',#373,#373,#309,.T.);
#467=EDGE_CURVE('',#374,#374,#310,.T.);
#468=EDGE_CURVE('',#375,#375,#311,.T.);
#469=EDGE_CURVE('',#376,#376,#312,.T.);
#470=EDGE_CURVE('',#377,#377,#313,.T.);
#471=EDGE_CURVE('',#378,#378,#314,.T.);
#472=EDGE_CURVE('',#379,#379,#315,.T.);
#473=EDGE_CURVE('',#380,#380,#316,.T.);
#474=EDGE_CURVE('',#381,#381,#317,.T.);
#475=EDGE_CURVE('',#382,#382,#318,.T.);
#476=EDGE_CURVE('',#383,#383,#319,.T.);
#477=EDGE_CURVE('',#383,#373,#216,.T.);
#478=EDGE_CURVE('',#384,#384,#320,.T.);
#479=EDGE_CURVE('',#384,#377,#217,.T.);
#480=EDGE_CURVE('',#385,#385,#321,.T.);
#481=EDGE_CURVE('',#385,#375,#218,.T.);
#482=EDGE_CURVE('',#386,#386,#322,.T.);
#483=EDGE_CURVE('',#386,#379,#219,.T.);
#484=EDGE_CURVE('',#387,#387,#323,.T.);
#485=EDGE_CURVE('',#387,#382,#220,.T.);
#486=EDGE_CURVE('',#367,#381,#221,.T.);
#487=EDGE_CURVE('',#366,#380,#222,.T.);
#488=EDGE_CURVE('',#365,#378,#223,.T.);
#489=EDGE_CURVE('',#364,#376,#224,.T.);
#490=EDGE_CURVE('',#363,#374,#225,.T.);
#491=EDGE_CURVE('',#362,#372,#226,.T.);
#492=ORIENTED_EDGE('',*,*,#388,.F.);
#493=ORIENTED_EDGE('',*,*,#389,.T.);
#494=ORIENTED_EDGE('',*,*,#390,.F.);
#495=ORIENTED_EDGE('',*,*,#389,.F.);
#496=ORIENTED_EDGE('',*,*,#391,.F.);
#497=ORIENTED_EDGE('',*,*,#392,.F.);
#498=ORIENTED_EDGE('',*,*,#393,.F.);
#499=ORIENTED_EDGE('',*,*,#394,.F.);
#500=ORIENTED_EDGE('',*,*,#395,.F.);
#501=ORIENTED_EDGE('',*,*,#396,.F.);
#502=ORIENTED_EDGE('',*,*,#388,.T.);
#503=ORIENTED_EDGE('',*,*,#397,.F.);
#504=ORIENTED_EDGE('',*,*,#398,.F.);
#505=ORIENTED_EDGE('',*,*,#399,.F.);
#506=ORIENTED_EDGE('',*,*,#400,.F.);
#507=ORIENTED_EDGE('',*,*,#401,.F.);
#508=ORIENTED_EDGE('',*,*,#402,.F.);
#509=ORIENTED_EDGE('',*,*,#390,.T.);
#510=ORIENTED_EDGE('',*,*,#403,.F.);
#511=ORIENTED_EDGE('',*,*,#404,.F.);
#512=ORIENTED_EDGE('',*,*,#405,.F.);
#513=ORIENTED_EDGE('',*,*,#406,.T.);
#514=ORIENTED_EDGE('',*,*,#402,.T.);
#515=ORIENTED_EDGE('',*,*,#404,.T.);
#516=ORIENTED_EDGE('',*,*,#407,.T.);
#517=ORIENTED_EDGE('',*,*,#408,.T.);
#518=ORIENTED_EDGE('',*,*,#397,.T.);
#519=ORIENTED_EDGE('',*,*,#406,.F.);
#520=ORIENTED_EDGE('',*,*,#409,.T.);
#521=ORIENTED_EDGE('',*,*,#410,.F.);
#522=ORIENTED_EDGE('',*,*,#411,.F.);
#523=ORIENTED_EDGE('',*,*,#412,.F.);
#524=ORIENTED_EDGE('',*,*,#413,.T.);
#525=ORIENTED_EDGE('',*,*,#414,.T.);
#526=ORIENTED_EDGE('',*,*,#411,.T.);
#527=ORIENTED_EDGE('',*,*,#400,.T.);
#528=ORIENTED_EDGE('',*,*,#415,.T.);
#529=ORIENTED_EDGE('',*,*,#416,.T.);
#530=ORIENTED_EDGE('',*,*,#413,.F.);
#531=ORIENTED_EDGE('',*,*,#399,.T.);
#532=ORIENTED_EDGE('',*,*,#417,.F.);
#533=ORIENTED_EDGE('',*,*,#418,.F.);
#534=ORIENTED_EDGE('',*,*,#419,.F.);
#535=ORIENTED_EDGE('',*,*,#420,.T.);
#536=ORIENTED_EDGE('',*,*,#421,.T.);
#537=ORIENTED_EDGE('',*,*,#418,.T.);
#538=ORIENTED_EDGE('',*,*,#392,.T.);
#539=ORIENTED_EDGE('',*,*,#422,.T.);
#540=ORIENTED_EDGE('',*,*,#423,.T.);
#541=ORIENTED_EDGE('',*,*,#420,.F.);
#542=ORIENTED_EDGE('',*,*,#391,.T.);
#543=ORIENTED_EDGE('',*,*,#403,.T.);
#544=ORIENTED_EDGE('',*,*,#424,.T.);
#545=ORIENTED_EDGE('',*,*,#419,.T.);
#546=ORIENTED_EDGE('',*,*,#425,.T.);
#547=ORIENTED_EDGE('',*,*,#426,.F.);
#548=ORIENTED_EDGE('',*,*,#427,.F.);
#549=ORIENTED_EDGE('',*,*,#428,.F.);
#550=ORIENTED_EDGE('',*,*,#429,.T.);
#551=ORIENTED_EDGE('',*,*,#394,.T.);
#552=ORIENTED_EDGE('',*,*,#427,.T.);
#553=ORIENTED_EDGE('',*,*,#430,.T.);
#554=ORIENTED_EDGE('',*,*,#431,.T.);
#555=ORIENTED_EDGE('',*,*,#395,.T.);
#556=ORIENTED_EDGE('',*,*,#429,.F.);
#557=ORIENTED_EDGE('',*,*,#432,.T.);
#558=ORIENTED_EDGE('',*,*,#417,.T.);
#559=ORIENTED_EDGE('',*,*,#433,.T.);
#560=ORIENTED_EDGE('',*,*,#428,.T.);
#561=ORIENTED_EDGE('',*,*,#393,.T.);
#562=ORIENTED_EDGE('',*,*,#426,.T.);
#563=ORIENTED_EDGE('',*,*,#434,.T.);
#564=ORIENTED_EDGE('',*,*,#412,.T.);
#565=ORIENTED_EDGE('',*,*,#435,.T.);
#566=ORIENTED_EDGE('',*,*,#410,.T.);
#567=ORIENTED_EDGE('',*,*,#436,.T.);
#568=ORIENTED_EDGE('',*,*,#405,.T.);
#569=ORIENTED_EDGE('',*,*,#401,.T.);
#570=ORIENTED_EDGE('',*,*,#407,.F.);
#571=ORIENTED_EDGE('',*,*,#425,.F.);
#572=ORIENTED_EDGE('',*,*,#421,.F.);
#573=ORIENTED_EDGE('',*,*,#437,.F.);
#574=ORIENTED_EDGE('',*,*,#409,.F.);
#575=ORIENTED_EDGE('',*,*,#437,.T.);
#576=ORIENTED_EDGE('',*,*,#423,.F.);
#577=ORIENTED_EDGE('',*,*,#438,.T.);
#578=ORIENTED_EDGE('',*,*,#424,.F.);
#579=ORIENTED_EDGE('',*,*,#436,.F.);
#580=ORIENTED_EDGE('',*,*,#434,.F.);
#581=ORIENTED_EDGE('',*,*,#433,.F.);
#582=ORIENTED_EDGE('',*,*,#439,.T.);
#583=ORIENTED_EDGE('',*,*,#440,.T.);
#584=ORIENTED_EDGE('',*,*,#441,.T.);
#585=ORIENTED_EDGE('',*,*,#442,.F.);
#586=ORIENTED_EDGE('',*,*,#443,.T.);
#587=ORIENTED_EDGE('',*,*,#444,.T.);
#588=ORIENTED_EDGE('',*,*,#445,.T.);
#589=ORIENTED_EDGE('',*,*,#446,.F.);
#590=ORIENTED_EDGE('',*,*,#447,.T.);
#591=ORIENTED_EDGE('',*,*,#448,.T.);
#592=ORIENTED_EDGE('',*,*,#449,.T.);
#593=ORIENTED_EDGE('',*,*,#450,.T.);
#594=ORIENTED_EDGE('',*,*,#451,.T.);
#595=ORIENTED_EDGE('',*,*,#452,.T.);
#596=ORIENTED_EDGE('',*,*,#398,.T.);
#597=ORIENTED_EDGE('',*,*,#408,.F.);
#598=ORIENTED_EDGE('',*,*,#438,.F.);
#599=ORIENTED_EDGE('',*,*,#422,.F.);
#600=ORIENTED_EDGE('',*,*,#396,.T.);
#601=ORIENTED_EDGE('',*,*,#431,.F.);
#602=ORIENTED_EDGE('',*,*,#453,.F.);
#603=ORIENTED_EDGE('',*,*,#415,.F.);
#604=ORIENTED_EDGE('',*,*,#416,.F.);
#605=ORIENTED_EDGE('',*,*,#453,.T.);
#606=ORIENTED_EDGE('',*,*,#432,.F.);
#607=ORIENTED_EDGE('',*,*,#454,.T.);
#608=ORIENTED_EDGE('',*,*,#414,.F.);
#609=ORIENTED_EDGE('',*,*,#454,.F.);
#610=ORIENTED_EDGE('',*,*,#430,.F.);
#611=ORIENTED_EDGE('',*,*,#435,.F.);
#612=ORIENTED_EDGE('',*,*,#442,.T.);
#613=ORIENTED_EDGE('',*,*,#455,.F.);
#614=ORIENTED_EDGE('',*,*,#446,.T.);
#615=ORIENTED_EDGE('',*,*,#456,.F.);
#616=ORIENTED_EDGE('',*,*,#456,.T.);
#617=ORIENTED_EDGE('',*,*,#445,.F.);
#618=ORIENTED_EDGE('',*,*,#457,.F.);
#619=ORIENTED_EDGE('',*,*,#458,.F.);
#620=ORIENTED_EDGE('',*,*,#439,.F.);
#621=ORIENTED_EDGE('',*,*,#458,.T.);
#622=ORIENTED_EDGE('',*,*,#459,.T.);
#623=ORIENTED_EDGE('',*,*,#460,.F.);
#624=ORIENTED_EDGE('',*,*,#459,.F.);
#625=ORIENTED_EDGE('',*,*,#457,.T.);
#626=ORIENTED_EDGE('',*,*,#444,.F.);
#627=ORIENTED_EDGE('',*,*,#461,.T.);
#628=ORIENTED_EDGE('',*,*,#440,.F.);
#629=ORIENTED_EDGE('',*,*,#455,.T.);
#630=ORIENTED_EDGE('',*,*,#441,.F.);
#631=ORIENTED_EDGE('',*,*,#461,.F.);
#632=ORIENTED_EDGE('',*,*,#443,.F.);
#633=ORIENTED_EDGE('',*,*,#462,.F.);
#634=ORIENTED_EDGE('',*,*,#463,.T.);
#635=ORIENTED_EDGE('',*,*,#464,.F.);
#636=ORIENTED_EDGE('',*,*,#463,.F.);
#637=ORIENTED_EDGE('',*,*,#465,.T.);
#638=ORIENTED_EDGE('',*,*,#466,.F.);
#639=ORIENTED_EDGE('',*,*,#467,.T.);
#640=ORIENTED_EDGE('',*,*,#468,.F.);
#641=ORIENTED_EDGE('',*,*,#469,.T.);
#642=ORIENTED_EDGE('',*,*,#470,.F.);
#643=ORIENTED_EDGE('',*,*,#471,.T.);
#644=ORIENTED_EDGE('',*,*,#472,.F.);
#645=ORIENTED_EDGE('',*,*,#473,.T.);
#646=ORIENTED_EDGE('',*,*,#462,.T.);
#647=ORIENTED_EDGE('',*,*,#474,.T.);
#648=ORIENTED_EDGE('',*,*,#475,.F.);
#649=ORIENTED_EDGE('',*,*,#476,.F.);
#650=ORIENTED_EDGE('',*,*,#477,.T.);
#651=ORIENTED_EDGE('',*,*,#466,.T.);
#652=ORIENTED_EDGE('',*,*,#477,.F.);
#653=ORIENTED_EDGE('',*,*,#478,.F.);
#654=ORIENTED_EDGE('',*,*,#479,.T.);
#655=ORIENTED_EDGE('',*,*,#470,.T.);
#656=ORIENTED_EDGE('',*,*,#479,.F.);
#657=ORIENTED_EDGE('',*,*,#480,.F.);
#658=ORIENTED_EDGE('',*,*,#481,.T.);
#659=ORIENTED_EDGE('',*,*,#468,.T.);
#660=ORIENTED_EDGE('',*,*,#481,.F.);
#661=ORIENTED_EDGE('',*,*,#482,.F.);
#662=ORIENTED_EDGE('',*,*,#483,.T.);
#663=ORIENTED_EDGE('',*,*,#472,.T.);
#664=ORIENTED_EDGE('',*,*,#483,.F.);
#665=ORIENTED_EDGE('',*,*,#484,.F.);
#666=ORIENTED_EDGE('',*,*,#485,.T.);
#667=ORIENTED_EDGE('',*,*,#475,.T.);
#668=ORIENTED_EDGE('',*,*,#485,.F.);
#669=ORIENTED_EDGE('',*,*,#460,.T.);
#670=ORIENTED_EDGE('',*,*,#464,.T.);
#671=ORIENTED_EDGE('',*,*,#484,.T.);
#672=ORIENTED_EDGE('',*,*,#482,.T.);
#673=ORIENTED_EDGE('',*,*,#480,.T.);
#674=ORIENTED_EDGE('',*,*,#478,.T.);
#675=ORIENTED_EDGE('',*,*,#476,.T.);
#676=ORIENTED_EDGE('',*,*,#452,.F.);
#677=ORIENTED_EDGE('',*,*,#486,.T.);
#678=ORIENTED_EDGE('',*,*,#474,.F.);
#679=ORIENTED_EDGE('',*,*,#486,.F.);
#680=ORIENTED_EDGE('',*,*,#451,.F.);
#681=ORIENTED_EDGE('',*,*,#487,.T.);
#682=ORIENTED_EDGE('',*,*,#473,.F.);
#683=ORIENTED_EDGE('',*,*,#487,.F.);
#684=ORIENTED_EDGE('',*,*,#450,.F.);
#685=ORIENTED_EDGE('',*,*,#488,.T.);
#686=ORIENTED_EDGE('',*,*,#471,.F.);
#687=ORIENTED_EDGE('',*,*,#488,.F.);
#688=ORIENTED_EDGE('',*,*,#449,.F.);
#689=ORIENTED_EDGE('',*,*,#489,.T.);
#690=ORIENTED_EDGE('',*,*,#469,.F.);
#691=ORIENTED_EDGE('',*,*,#489,.F.);
#692=ORIENTED_EDGE('',*,*,#448,.F.);
#693=ORIENTED_EDGE('',*,*,#490,.T.);
#694=ORIENTED_EDGE('',*,*,#467,.F.);
#695=ORIENTED_EDGE('',*,*,#490,.F.);
#696=ORIENTED_EDGE('',*,*,#447,.F.);
#697=ORIENTED_EDGE('',*,*,#491,.T.);
#698=ORIENTED_EDGE('',*,*,#465,.F.);
#699=ORIENTED_EDGE('',*,*,#491,.F.);
#700=CYLINDRICAL_SURFACE('',#777,2.3);
#701=CYLINDRICAL_SURFACE('',#790,0.5);
#702=CYLINDRICAL_SURFACE('',#798,0.5);
#703=CYLINDRICAL_SURFACE('',#806,0.5);
#704=CYLINDRICAL_SURFACE('',#810,0.5);
#705=CYLINDRICAL_SURFACE('',#815,0.5);
#706=CYLINDRICAL_SURFACE('',#819,0.5);
#707=CYLINDRICAL_SURFACE('',#820,0.5);
#708=CYLINDRICAL_SURFACE('',#821,0.5);
#709=CYLINDRICAL_SURFACE('',#823,0.5);
#710=CYLINDRICAL_SURFACE('',#834,0.5);
#711=CYLINDRICAL_SURFACE('',#840,5.);
#712=CYLINDRICAL_SURFACE('',#841,21.5);
#713=CYLINDRICAL_SURFACE('',#843,5.);
#714=CYLINDRICAL_SURFACE('',#844,1.6);
#715=CYLINDRICAL_SURFACE('',#864,1.6);
#716=CYLINDRICAL_SURFACE('',#866,1.6);
#717=CYLINDRICAL_SURFACE('',#868,1.6);
#718=CYLINDRICAL_SURFACE('',#870,1.6);
#719=CYLINDRICAL_SURFACE('',#872,1.6);
#720=CYLINDRICAL_SURFACE('',#875,3.);
#721=CYLINDRICAL_SURFACE('',#876,3.);
#722=CYLINDRICAL_SURFACE('',#877,3.);
#723=CYLINDRICAL_SURFACE('',#878,3.);
#724=CYLINDRICAL_SURFACE('',#879,3.);
#725=CYLINDRICAL_SURFACE('',#880,3.);
#726=ADVANCED_FACE('',(#66),#700,.F.);
#727=ADVANCED_FACE('',(#67,#30),#51,.T.);
#728=ADVANCED_FACE('',(#68,#31),#52,.T.);
#729=ADVANCED_FACE('',(#69),#26,.T.);
#730=ADVANCED_FACE('',(#70),#701,.T.);
#731=ADVANCED_FACE('',(#71),#22,.T.);
#732=ADVANCED_FACE('',(#72),#27,.T.);
#733=ADVANCED_FACE('',(#73),#702,.T.);
#734=ADVANCED_FACE('',(#74),#23,.T.);
#735=ADVANCED_FACE('',(#75),#28,.T.);
#736=ADVANCED_FACE('',(#76),#703,.T.);
#737=ADVANCED_FACE('',(#77),#24,.T.);
#738=ADVANCED_FACE('',(#78),#704,.T.);
#739=ADVANCED_FACE('',(#79),#29,.T.);
#740=ADVANCED_FACE('',(#80),#705,.T.);
#741=ADVANCED_FACE('',(#81),#25,.T.);
#742=ADVANCED_FACE('',(#82),#706,.T.);
#743=ADVANCED_FACE('',(#83),#707,.T.);
#744=ADVANCED_FACE('',(#84),#708,.T.);
#745=ADVANCED_FACE('',(#85),#53,.F.);
#746=ADVANCED_FACE('',(#86),#709,.F.);
#747=ADVANCED_FACE('',(#87),#54,.T.);
#748=ADVANCED_FACE('',(#88,#32,#33,#34,#35,#36,#37,#38),#55,.F.);
#749=ADVANCED_FACE('',(#89),#710,.F.);
#750=ADVANCED_FACE('',(#90),#56,.F.);
#751=ADVANCED_FACE('',(#91),#57,.T.);
#752=ADVANCED_FACE('',(#92),#58,.F.);
#753=ADVANCED_FACE('',(#93),#711,.F.);
#754=ADVANCED_FACE('',(#94),#712,.T.);
#755=ADVANCED_FACE('',(#95),#713,.F.);
#756=ADVANCED_FACE('',(#96),#714,.F.);
#757=ADVANCED_FACE('',(#97,#39),#59,.F.);
#758=ADVANCED_FACE('',(#98,#40),#60,.F.);
#759=ADVANCED_FACE('',(#99,#41),#61,.F.);
#760=ADVANCED_FACE('',(#100,#42),#62,.F.);
#761=ADVANCED_FACE('',(#101,#43),#63,.F.);
#762=ADVANCED_FACE('',(#102,#44),#64,.F.);
#763=ADVANCED_FACE('',(#103),#715,.F.);
#764=ADVANCED_FACE('',(#104),#716,.F.);
#765=ADVANCED_FACE('',(#105),#717,.F.);
#766=ADVANCED_FACE('',(#106),#718,.F.);
#767=ADVANCED_FACE('',(#107),#719,.F.);
#768=ADVANCED_FACE('',(#108,#45,#46,#47,#48,#49,#50),#65,.T.);
#769=ADVANCED_FACE('',(#109),#720,.F.);
#770=ADVANCED_FACE('',(#110),#721,.F.);
#771=ADVANCED_FACE('',(#111),#722,.F.);
#772=ADVANCED_FACE('',(#112),#723,.F.);
#773=ADVANCED_FACE('',(#113),#724,.F.);
#774=ADVANCED_FACE('',(#114),#725,.F.);
#775=CLOSED_SHELL('',(#726,#727,#728,#729,#730,#731,#732,#733,#734,#735,
#736,#737,#738,#739,#740,#741,#742,#743,#744,#745,#746,#747,#748,#749,#750,
#751,#752,#753,#754,#755,#756,#757,#758,#759,#760,#761,#762,#763,#764,#765,
#766,#767,#768,#769,#770,#771,#772,#773,#774));
#776=AXIS2_PLACEMENT_3D('',#1133,#881,#882);
#777=AXIS2_PLACEMENT_3D('',#1134,#883,#884);
#778=AXIS2_PLACEMENT_3D('',#1136,#885,#886);
#779=AXIS2_PLACEMENT_3D('',#1139,#888,#889);
#780=AXIS2_PLACEMENT_3D('',#1140,#890,#891);
#781=AXIS2_PLACEMENT_3D('',#1143,#892,#893);
#782=AXIS2_PLACEMENT_3D('',#1151,#897,#898);
#783=AXIS2_PLACEMENT_3D('',#1153,#900,#901);
#784=AXIS2_PLACEMENT_3D('',#1156,#902,#903);
#785=AXIS2_PLACEMENT_3D('',#1160,#905,#906);
#786=AXIS2_PLACEMENT_3D('',#1166,#910,#911);
#787=AXIS2_PLACEMENT_3D('',#1169,#912,#913);
#788=AXIS2_PLACEMENT_3D('',#1170,#914,#915);
#789=AXIS2_PLACEMENT_3D('',#1171,#916,#917);
#790=AXIS2_PLACEMENT_3D('',#1172,#918,#919);
#791=AXIS2_PLACEMENT_3D('',#1174,#920,#921);
#792=AXIS2_PLACEMENT_3D('',#1176,#923,#924);
#793=AXIS2_PLACEMENT_3D('',#1184,#925,#926);
#794=AXIS2_PLACEMENT_3D('',#1185,#927,#928);
#795=AXIS2_PLACEMENT_3D('',#1187,#929,#930);
#796=AXIS2_PLACEMENT_3D('',#1189,#931,#932);
#797=AXIS2_PLACEMENT_3D('',#1190,#933,#934);
#798=AXIS2_PLACEMENT_3D('',#1191,#935,#936);
#799=AXIS2_PLACEMENT_3D('',#1193,#937,#938);
#800=AXIS2_PLACEMENT_3D('',#1195,#940,#941);
#801=AXIS2_PLACEMENT_3D('',#1203,#942,#943);
#802=AXIS2_PLACEMENT_3D('',#1204,#944,#945);
#803=AXIS2_PLACEMENT_3D('',#1206,#946,#947);
#804=AXIS2_PLACEMENT_3D('',#1208,#948,#949);
#805=AXIS2_PLACEMENT_3D('',#1209,#950,#951);
#806=AXIS2_PLACEMENT_3D('',#1210,#952,#953);
#807=AXIS2_PLACEMENT_3D('',#1212,#954,#955);
#808=AXIS2_PLACEMENT_3D('',#1214,#957,#958);
#809=AXIS2_PLACEMENT_3D('',#1222,#959,#960);
#810=AXIS2_PLACEMENT_3D('',#1223,#961,#962);
#811=AXIS2_PLACEMENT_3D('',#1226,#965,#966);
#812=AXIS2_PLACEMENT_3D('',#1229,#967,#968);
#813=AXIS2_PLACEMENT_3D('',#1230,#969,#970);
#814=AXIS2_PLACEMENT_3D('',#1231,#971,#972);
#815=AXIS2_PLACEMENT_3D('',#1232,#973,#974);
#816=AXIS2_PLACEMENT_3D('',#1234,#975,#976);
#817=AXIS2_PLACEMENT_3D('',#1236,#978,#979);
#818=AXIS2_PLACEMENT_3D('',#1244,#980,#981);
#819=AXIS2_PLACEMENT_3D('',#1245,#982,#983);
#820=AXIS2_PLACEMENT_3D('',#1247,#985,#986);
#821=AXIS2_PLACEMENT_3D('',#1250,#989,#990);
#822=AXIS2_PLACEMENT_3D('',#1252,#992,#993);
#823=AXIS2_PLACEMENT_3D('',#1254,#995,#996);
#824=AXIS2_PLACEMENT_3D('',#1256,#998,#999);
#825=AXIS2_PLACEMENT_3D('',#1257,#1000,#1001);
#826=AXIS2_PLACEMENT_3D('',#1262,#1003,#1004);
#827=AXIS2_PLACEMENT_3D('',#1270,#1008,#1009);
#828=AXIS2_PLACEMENT_3D('',#1275,#1012,#1013);
#829=AXIS2_PLACEMENT_3D('',#1277,#1014,#1015);
#830=AXIS2_PLACEMENT_3D('',#1279,#1016,#1017);
#831=AXIS2_PLACEMENT_3D('',#1281,#1018,#1019);
#832=AXIS2_PLACEMENT_3D('',#1283,#1020,#1021);
#833=AXIS2_PLACEMENT_3D('',#1285,#1022,#1023);
#834=AXIS2_PLACEMENT_3D('',#1287,#1025,#1026);
#835=AXIS2_PLACEMENT_3D('',#1289,#1028,#1029);
#836=AXIS2_PLACEMENT_3D('',#1290,#1030,#1031);
#837=AXIS2_PLACEMENT_3D('',#1291,#1032,#1033);
#838=AXIS2_PLACEMENT_3D('',#1292,#1034,#1035);
#839=AXIS2_PLACEMENT_3D('',#1293,#1036,#1037);
#840=AXIS2_PLACEMENT_3D('',#1294,#1038,#1039);
#841=AXIS2_PLACEMENT_3D('',#1312,#1040,#1041);
#842=AXIS2_PLACEMENT_3D('',#1315,#1043,#1044);
#843=AXIS2_PLACEMENT_3D('',#1330,#1045,#1046);
#844=AXIS2_PLACEMENT_3D('',#1331,#1047,#1048);
#845=AXIS2_PLACEMENT_3D('',#1333,#1049,#1050);
#846=AXIS2_PLACEMENT_3D('',#1336,#1052,#1053);
#847=AXIS2_PLACEMENT_3D('',#1337,#1054,#1055);
#848=AXIS2_PLACEMENT_3D('',#1339,#1056,#1057);
#849=AXIS2_PLACEMENT_3D('',#1341,#1058,#1059);
#850=AXIS2_PLACEMENT_3D('',#1342,#1060,#1061);
#851=AXIS2_PLACEMENT_3D('',#1344,#1062,#1063);
#852=AXIS2_PLACEMENT_3D('',#1346,#1064,#1065);
#853=AXIS2_PLACEMENT_3D('',#1347,#1066,#1067);
#854=AXIS2_PLACEMENT_3D('',#1349,#1068,#1069);
#855=AXIS2_PLACEMENT_3D('',#1351,#1070,#1071);
#856=AXIS2_PLACEMENT_3D('',#1352,#1072,#1073);
#857=AXIS2_PLACEMENT_3D('',#1354,#1074,#1075);
#858=AXIS2_PLACEMENT_3D('',#1356,#1076,#1077);
#859=AXIS2_PLACEMENT_3D('',#1357,#1078,#1079);
#860=AXIS2_PLACEMENT_3D('',#1359,#1080,#1081);
#861=AXIS2_PLACEMENT_3D('',#1360,#1082,#1083);
#862=AXIS2_PLACEMENT_3D('',#1362,#1084,#1085);
#863=AXIS2_PLACEMENT_3D('',#1364,#1086,#1087);
#864=AXIS2_PLACEMENT_3D('',#1365,#1088,#1089);
#865=AXIS2_PLACEMENT_3D('',#1367,#1090,#1091);
#866=AXIS2_PLACEMENT_3D('',#1369,#1093,#1094);
#867=AXIS2_PLACEMENT_3D('',#1371,#1095,#1096);
#868=AXIS2_PLACEMENT_3D('',#1373,#1098,#1099);
#869=AXIS2_PLACEMENT_3D('',#1375,#1100,#1101);
#870=AXIS2_PLACEMENT_3D('',#1377,#1103,#1104);
#871=AXIS2_PLACEMENT_3D('',#1379,#1105,#1106);
#872=AXIS2_PLACEMENT_3D('',#1381,#1108,#1109);
#873=AXIS2_PLACEMENT_3D('',#1383,#1110,#1111);
#874=AXIS2_PLACEMENT_3D('',#1385,#1113,#1114);
#875=AXIS2_PLACEMENT_3D('',#1386,#1115,#1116);
#876=AXIS2_PLACEMENT_3D('',#1388,#1118,#1119);
#877=AXIS2_PLACEMENT_3D('',#1390,#1121,#1122);
#878=AXIS2_PLACEMENT_3D('',#1392,#1124,#1125);
#879=AXIS2_PLACEMENT_3D('',#1394,#1127,#1128);
#880=AXIS2_PLACEMENT_3D('',#1396,#1130,#1131);
#881=DIRECTION('axis',(0.,0.,1.));
#882=DIRECTION('refdir',(1.,0.,0.));
#883=DIRECTION('center_axis',(-1.,0.,0.));
#884=DIRECTION('ref_axis',(0.,1.,0.));
#885=DIRECTION('center_axis',(-1.,0.,0.));
#886=DIRECTION('ref_axis',(0.,1.,0.));
#887=DIRECTION('',(-1.,0.,0.));
#888=DIRECTION('center_axis',(1.,0.,0.));
#889=DIRECTION('ref_axis',(0.,1.,0.));
#890=DIRECTION('center_axis',(1.,0.,0.));
#891=DIRECTION('ref_axis',(0.,-1.,0.));
#892=DIRECTION('center_axis',(1.,0.,0.));
#893=DIRECTION('ref_axis',(0.,0.707106781186548,0.707106781186548));
#894=DIRECTION('',(0.,0.,1.));
#895=DIRECTION('',(0.,-1.,0.));
#896=DIRECTION('',(0.,0.,-1.));
#897=DIRECTION('center_axis',(1.,0.,0.));
#898=DIRECTION('ref_axis',(0.,-0.707106781186548,0.707106781186547));
#899=DIRECTION('',(0.,1.,0.));
#900=DIRECTION('center_axis',(-1.,0.,0.));
#901=DIRECTION('ref_axis',(0.,1.,0.));
#902=DIRECTION('center_axis',(-1.,0.,0.));
#903=DIRECTION('ref_axis',(0.,0.707106781186548,0.707106781186548));
#904=DIRECTION('',(0.,-1.,0.));
#905=DIRECTION('center_axis',(-1.,0.,0.));
#906=DIRECTION('ref_axis',(0.,-0.707106781186548,0.707106781186547));
#907=DIRECTION('',(0.,0.,1.));
#908=DIRECTION('',(0.,1.,0.));
#909=DIRECTION('',(0.,0.,-1.));
#910=DIRECTION('center_axis',(0.408248290463861,-0.816496580927726,0.408248290463865));
#911=DIRECTION('ref_axis',(-0.577350269189622,-0.577350269189627,-0.577350269189629));
#912=DIRECTION('center_axis',(-1.,0.,-4.44089209850062E-15));
#913=DIRECTION('ref_axis',(0.,-1.,0.));
#914=DIRECTION('center_axis',(0.,0.,-1.));
#915=DIRECTION('ref_axis',(-1.,0.,0.));
#916=DIRECTION('center_axis',(0.,-1.,0.));
#917=DIRECTION('ref_axis',(0.,0.,-1.));
#918=DIRECTION('center_axis',(0.,0.,1.));
#919=DIRECTION('ref_axis',(-0.707106781186547,-0.707106781186548,0.));
#920=DIRECTION('center_axis',(0.,0.,-1.));
#921=DIRECTION('ref_axis',(0.,-1.,0.));
#922=DIRECTION('',(0.,0.,1.));
#923=DIRECTION('center_axis',(-1.,0.,0.));
#924=DIRECTION('ref_axis',(0.,0.,1.));
#925=DIRECTION('center_axis',(1.,0.,0.));
#926=DIRECTION('ref_axis',(0.,0.707106781186548,0.707106781186548));
#927=DIRECTION('center_axis',(-0.408248290463861,-0.816496580927727,-0.408248290463864));
#928=DIRECTION('ref_axis',(-0.577350269189624,0.577350269189626,-0.577350269189628));
#929=DIRECTION('center_axis',(0.,1.,0.));
#930=DIRECTION('ref_axis',(-1.,0.,0.));
#931=DIRECTION('center_axis',(0.,0.,-1.));
#932=DIRECTION('ref_axis',(0.,1.,0.));
#933=DIRECTION('center_axis',(-1.,-4.44089209850063E-15,0.));
#934=DIRECTION('ref_axis',(0.,0.,-1.));
#935=DIRECTION('center_axis',(0.,0.,-1.));
#936=DIRECTION('ref_axis',(-0.707106781186547,0.707106781186548,0.));
#937=DIRECTION('center_axis',(0.,0.,-1.));
#938=DIRECTION('ref_axis',(-1.,0.,0.));
#939=DIRECTION('',(0.,0.,-1.));
#940=DIRECTION('center_axis',(-1.,0.,0.));
#941=DIRECTION('ref_axis',(0.,0.,1.));
#942=DIRECTION('center_axis',(1.,0.,0.));
#943=DIRECTION('ref_axis',(0.,-0.707106781186548,0.707106781186547));
#944=DIRECTION('center_axis',(-0.408248290463861,-0.816496580927727,0.408248290463864));
#945=DIRECTION('ref_axis',(0.577350269189624,-0.577350269189626,-0.577350269189628));
#946=DIRECTION('center_axis',(0.,-1.,0.));
#947=DIRECTION('ref_axis',(1.,0.,0.));
#948=DIRECTION('center_axis',(0.,0.,-1.));
#949=DIRECTION('ref_axis',(0.,-1.,0.));
#950=DIRECTION('center_axis',(1.,4.44089209850063E-15,0.));
#951=DIRECTION('ref_axis',(0.,0.,-1.));
#952=DIRECTION('center_axis',(0.,0.,-1.));
#953=DIRECTION('ref_axis',(0.707106781186547,-0.707106781186548,0.));
#954=DIRECTION('center_axis',(0.,0.,-1.));
#955=DIRECTION('ref_axis',(1.,0.,0.));
#956=DIRECTION('',(0.,0.,-1.));
#957=DIRECTION('center_axis',(1.,0.,0.));
#958=DIRECTION('ref_axis',(0.,0.,-1.));
#959=DIRECTION('center_axis',(-1.,0.,0.));
#960=DIRECTION('ref_axis',(0.,0.707106781186548,0.707106781186548));
#961=DIRECTION('center_axis',(-1.,0.,0.));
#962=DIRECTION('ref_axis',(0.,-0.707106781186547,-0.707106781186548));
#963=DIRECTION('',(1.,0.,0.));
#964=DIRECTION('',(-1.,0.,0.));
#965=DIRECTION('center_axis',(0.408248290463861,-0.816496580927726,-0.408248290463865));
#966=DIRECTION('ref_axis',(0.577350269189622,0.577350269189627,-0.577350269189629));
#967=DIRECTION('center_axis',(1.,0.,-4.44089209850062E-15));
#968=DIRECTION('ref_axis',(0.,1.,0.));
#969=DIRECTION('center_axis',(0.,0.,-1.));
#970=DIRECTION('ref_axis',(1.,0.,0.));
#971=DIRECTION('center_axis',(0.,1.,0.));
#972=DIRECTION('ref_axis',(0.,0.,-1.));
#973=DIRECTION('center_axis',(0.,0.,1.));
#974=DIRECTION('ref_axis',(0.707106781186547,0.707106781186548,0.));
#975=DIRECTION('center_axis',(0.,0.,-1.));
#976=DIRECTION('ref_axis',(0.,1.,0.));
#977=DIRECTION('',(0.,0.,1.));
#978=DIRECTION('center_axis',(1.,0.,0.));
#979=DIRECTION('ref_axis',(0.,0.,-1.));
#980=DIRECTION('center_axis',(-1.,0.,0.));
#981=DIRECTION('ref_axis',(0.,-0.707106781186548,0.707106781186547));
#982=DIRECTION('center_axis',(0.,-1.,0.));
#983=DIRECTION('ref_axis',(0.707106781186549,0.,-0.707106781186546));
#984=DIRECTION('',(0.,1.,0.));
#985=DIRECTION('center_axis',(1.,0.,0.));
#986=DIRECTION('ref_axis',(0.,0.707106781186547,-0.707106781186548));
#987=DIRECTION('',(-1.,0.,0.));
#988=DIRECTION('',(1.,0.,0.));
#989=DIRECTION('center_axis',(0.,1.,0.));
#990=DIRECTION('ref_axis',(-0.707106781186549,0.,-0.707106781186546));
#991=DIRECTION('',(0.,-1.,0.));
#992=DIRECTION('center_axis',(0.,1.,0.));
#993=DIRECTION('ref_axis',(0.,0.,-1.));
#994=DIRECTION('',(1.,0.,0.));
#995=DIRECTION('center_axis',(-1.,0.,0.));
#996=DIRECTION('ref_axis',(0.,0.707106781186548,0.707106781186547));
#997=DIRECTION('',(-1.,0.,0.));
#998=DIRECTION('center_axis',(0.,0.,-1.));
#999=DIRECTION('ref_axis',(-1.,0.,0.));
#1000=DIRECTION('center_axis',(0.,0.,1.));
#1001=DIRECTION('ref_axis',(1.,0.,0.));
#1002=DIRECTION('',(-1.,0.,0.));
#1003=DIRECTION('center_axis',(0.,0.,-1.));
#1004=DIRECTION('ref_axis',(1.,0.,0.));
#1005=DIRECTION('',(-1.,0.,0.));
#1006=DIRECTION('',(0.,1.,0.));
#1007=DIRECTION('',(1.,0.,0.));
#1008=DIRECTION('center_axis',(0.,0.,-1.));
#1009=DIRECTION('ref_axis',(1.,0.,0.));
#1010=DIRECTION('',(1.,0.,0.));
#1011=DIRECTION('',(0.,-1.,0.));
#1012=DIRECTION('center_axis',(0.,0.,1.));
#1013=DIRECTION('ref_axis',(1.,0.,0.));
#1014=DIRECTION('center_axis',(0.,0.,1.));
#1015=DIRECTION('ref_axis',(1.,0.,0.));
#1016=DIRECTION('center_axis',(0.,0.,1.));
#1017=DIRECTION('ref_axis',(1.,0.,0.));
#1018=DIRECTION('center_axis',(0.,0.,1.));
#1019=DIRECTION('ref_axis',(1.,0.,0.));
#1020=DIRECTION('center_axis',(0.,0.,1.));
#1021=DIRECTION('ref_axis',(1.,0.,0.));
#1022=DIRECTION('center_axis',(0.,0.,1.));
#1023=DIRECTION('ref_axis',(1.,0.,0.));
#1024=DIRECTION('',(1.,0.,0.));
#1025=DIRECTION('center_axis',(-1.,0.,0.));
#1026=DIRECTION('ref_axis',(0.,-0.707106781186548,0.707106781186548));
#1027=DIRECTION('',(-1.,0.,0.));
#1028=DIRECTION('center_axis',(0.,-1.,0.));
#1029=DIRECTION('ref_axis',(0.,0.,1.));
#1030=DIRECTION('center_axis',(1.,0.,0.));
#1031=DIRECTION('ref_axis',(0.,1.,0.));
#1032=DIRECTION('center_axis',(-1.,0.,0.));
#1033=DIRECTION('ref_axis',(0.,1.,0.));
#1034=DIRECTION('center_axis',(1.,0.,0.));
#1035=DIRECTION('ref_axis',(0.,1.,0.));
#1036=DIRECTION('center_axis',(1.,0.,0.));
#1037=DIRECTION('ref_axis',(0.,1.,0.));
#1038=DIRECTION('center_axis',(-1.,0.,0.));
#1039=DIRECTION('ref_axis',(0.,1.,0.));
#1040=DIRECTION('center_axis',(0.,0.,-1.));
#1041=DIRECTION('ref_axis',(1.,0.,0.));
#1042=DIRECTION('',(0.,0.,1.));
#1043=DIRECTION('center_axis',(0.,0.,1.));
#1044=DIRECTION('ref_axis',(1.,0.,0.));
#1045=DIRECTION('center_axis',(1.,0.,0.));
#1046=DIRECTION('ref_axis',(0.,1.,0.));
#1047=DIRECTION('center_axis',(0.,0.,1.));
#1048=DIRECTION('ref_axis',(1.,0.,0.));
#1049=DIRECTION('center_axis',(0.,0.,1.));
#1050=DIRECTION('ref_axis',(1.,0.,0.));
#1051=DIRECTION('',(0.,0.,1.));
#1052=DIRECTION('center_axis',(0.,0.,-1.));
#1053=DIRECTION('ref_axis',(1.,0.,0.));
#1054=DIRECTION('center_axis',(0.,0.,1.));
#1055=DIRECTION('ref_axis',(1.,0.,0.));
#1056=DIRECTION('center_axis',(0.,0.,-1.));
#1057=DIRECTION('ref_axis',(1.,0.,0.));
#1058=DIRECTION('center_axis',(0.,0.,-1.));
#1059=DIRECTION('ref_axis',(1.,0.,0.));
#1060=DIRECTION('center_axis',(0.,0.,1.));
#1061=DIRECTION('ref_axis',(1.,0.,0.));
#1062=DIRECTION('center_axis',(0.,0.,-1.));
#1063=DIRECTION('ref_axis',(1.,0.,0.));
#1064=DIRECTION('center_axis',(0.,0.,-1.));
#1065=DIRECTION('ref_axis',(1.,0.,0.));
#1066=DIRECTION('center_axis',(0.,0.,1.));
#1067=DIRECTION('ref_axis',(1.,0.,0.));
#1068=DIRECTION('center_axis',(0.,0.,-1.));
#1069=DIRECTION('ref_axis',(1.,0.,0.));
#1070=DIRECTION('center_axis',(0.,0.,-1.));
#1071=DIRECTION('ref_axis',(1.,0.,0.));
#1072=DIRECTION('center_axis',(0.,0.,1.));
#1073=DIRECTION('ref_axis',(1.,0.,0.));
#1074=DIRECTION('center_axis',(0.,0.,-1.));
#1075=DIRECTION('ref_axis',(1.,0.,0.));
#1076=DIRECTION('center_axis',(0.,0.,-1.));
#1077=DIRECTION('ref_axis',(1.,0.,0.));
#1078=DIRECTION('center_axis',(0.,0.,1.));
#1079=DIRECTION('ref_axis',(1.,0.,0.));
#1080=DIRECTION('center_axis',(0.,0.,-1.));
#1081=DIRECTION('ref_axis',(1.,0.,0.));
#1082=DIRECTION('center_axis',(0.,0.,1.));
#1083=DIRECTION('ref_axis',(1.,0.,0.));
#1084=DIRECTION('center_axis',(0.,0.,-1.));
#1085=DIRECTION('ref_axis',(1.,0.,0.));
#1086=DIRECTION('center_axis',(0.,0.,-1.));
#1087=DIRECTION('ref_axis',(1.,0.,0.));
#1088=DIRECTION('center_axis',(0.,0.,1.));
#1089=DIRECTION('ref_axis',(1.,0.,0.));
#1090=DIRECTION('center_axis',(0.,0.,-1.));
#1091=DIRECTION('ref_axis',(1.,0.,0.));
#1092=DIRECTION('',(0.,0.,-1.));
#1093=DIRECTION('center_axis',(0.,0.,1.));
#1094=DIRECTION('ref_axis',(1.,0.,0.));
#1095=DIRECTION('center_axis',(0.,0.,-1.));
#1096=DIRECTION('ref_axis',(1.,0.,0.));
#1097=DIRECTION('',(0.,0.,-1.));
#1098=DIRECTION('center_axis',(0.,0.,1.));
#1099=DIRECTION('ref_axis',(1.,0.,0.));
#1100=DIRECTION('center_axis',(0.,0.,-1.));
#1101=DIRECTION('ref_axis',(1.,0.,0.));
#1102=DIRECTION('',(0.,0.,-1.));
#1103=DIRECTION('center_axis',(0.,0.,1.));
#1104=DIRECTION('ref_axis',(1.,0.,0.));
#1105=DIRECTION('center_axis',(0.,0.,-1.));
#1106=DIRECTION('ref_axis',(1.,0.,0.));
#1107=DIRECTION('',(0.,0.,-1.));
#1108=DIRECTION('center_axis',(0.,0.,1.));
#1109=DIRECTION('ref_axis',(1.,0.,0.));
#1110=DIRECTION('center_axis',(0.,0.,-1.));
#1111=DIRECTION('ref_axis',(1.,0.,0.));
#1112=DIRECTION('',(0.,0.,-1.));
#1113=DIRECTION('center_axis',(0.,0.,1.));
#1114=DIRECTION('ref_axis',(1.,0.,0.));
#1115=DIRECTION('center_axis',(0.,0.,-1.));
#1116=DIRECTION('ref_axis',(1.,0.,0.));
#1117=DIRECTION('',(0.,0.,1.));
#1118=DIRECTION('center_axis',(0.,0.,-1.));
#1119=DIRECTION('ref_axis',(1.,0.,0.));
#1120=DIRECTION('',(0.,0.,1.));
#1121=DIRECTION('center_axis',(0.,0.,-1.));
#1122=DIRECTION('ref_axis',(1.,0.,0.));
#1123=DIRECTION('',(0.,0.,1.));
#1124=DIRECTION('center_axis',(0.,0.,-1.));
#1125=DIRECTION('ref_axis',(1.,0.,0.));
#1126=DIRECTION('',(0.,0.,1.));
#1127=DIRECTION('center_axis',(0.,0.,-1.));
#1128=DIRECTION('ref_axis',(1.,0.,0.));
#1129=DIRECTION('',(0.,0.,1.));
#1130=DIRECTION('center_axis',(0.,0.,-1.));
#1131=DIRECTION('ref_axis',(1.,0.,0.));
#1132=DIRECTION('',(0.,0.,1.));
#1133=CARTESIAN_POINT('',(0.,0.,0.));
#1134=CARTESIAN_POINT('Origin',(11.,0.,-6.5));
#1135=CARTESIAN_POINT('',(11.,-2.3,-6.5));
#1136=CARTESIAN_POINT('Origin',(11.,0.,-6.5));
#1137=CARTESIAN_POINT('',(-11.,-2.3,-6.5));
#1138=CARTESIAN_POINT('',(11.,-2.3,-6.5));
#1139=CARTESIAN_POINT('Origin',(-11.,0.,-6.5));
#1140=CARTESIAN_POINT('Origin',(11.,11.,-3.));
#1141=CARTESIAN_POINT('',(11.,-4.5,-3.5));
#1142=CARTESIAN_POINT('',(11.,-4.63397459621556,-3.));
#1143=CARTESIAN_POINT('Origin',(11.,-5.5,-3.5));
#1144=CARTESIAN_POINT('',(11.,-4.5,-9.50000011920929));
#1145=CARTESIAN_POINT('',(11.,-4.5,-3.00000002483527));
#1146=CARTESIAN_POINT('',(11.,4.5,-9.50000011920929));
#1147=CARTESIAN_POINT('',(11.,5.5,-9.50000011920929));
#1148=CARTESIAN_POINT('',(11.,4.5,-3.5));
#1149=CARTESIAN_POINT('',(11.,4.5,-5.50000005960464));
#1150=CARTESIAN_POINT('',(11.,4.63397459621556,-3.));
#1151=CARTESIAN_POINT('Origin',(11.,5.5,-3.5));
#1152=CARTESIAN_POINT('',(11.,5.5,-3.));
#1153=CARTESIAN_POINT('Origin',(-11.,-11.,-3.));
#1154=CARTESIAN_POINT('',(-11.,-4.63397459621556,-3.));
#1155=CARTESIAN_POINT('',(-11.,-4.5,-3.5));
#1156=CARTESIAN_POINT('Origin',(-11.,-5.5,-3.5));
#1157=CARTESIAN_POINT('',(-11.,4.63397459621556,-3.));
#1158=CARTESIAN_POINT('',(-11.,-5.5,-3.));
#1159=CARTESIAN_POINT('',(-11.,4.5,-3.5));
#1160=CARTESIAN_POINT('Origin',(-11.,5.5,-3.5));
#1161=CARTESIAN_POINT('',(-11.,4.5,-9.50000011920929));
#1162=CARTESIAN_POINT('',(-11.,4.5,-5.50000005960464));
#1163=CARTESIAN_POINT('',(-11.,-4.5,-9.50000011920929));
#1164=CARTESIAN_POINT('',(-11.,-5.5,-9.50000011920929));
#1165=CARTESIAN_POINT('',(-11.,-4.5,-3.00000002483527));
#1166=CARTESIAN_POINT('Origin',(-10.5,-4.5,-9.50000011920929));
#1167=CARTESIAN_POINT('',(-10.5,-5.,-9.50000011920929));
#1168=CARTESIAN_POINT('',(-10.5,-4.5,-10.0000001192093));
#1169=CARTESIAN_POINT('Origin',(-10.5,-4.5,-9.50000011920929));
#1170=CARTESIAN_POINT('Origin',(-10.5,-4.5,-9.50000011920929));
#1171=CARTESIAN_POINT('Origin',(-10.5,-4.5,-9.50000011920929));
#1172=CARTESIAN_POINT('Origin',(-10.5,-4.5,-3.00000002483527));
#1173=CARTESIAN_POINT('',(-10.5,-5.,-3.5));
#1174=CARTESIAN_POINT('Origin',(-10.5,-4.5,-3.5));
#1175=CARTESIAN_POINT('',(-10.5,-5.,-3.00000002483527));
#1176=CARTESIAN_POINT('Origin',(-10.5,-5.5,-3.5));
#1177=CARTESIAN_POINT('',(-10.5,-5.5,-3.));
#1178=CARTESIAN_POINT('Ctrl Pts',(-11.,-4.63397459621556,-3.));
#1179=CARTESIAN_POINT('Ctrl Pts',(-11.,-4.76141330715334,-3.));
#1180=CARTESIAN_POINT('Ctrl Pts',(-10.9552140000511,-4.90763476342456,-3.));
#1181=CARTESIAN_POINT('Ctrl Pts',(-10.8019563580944,-5.192388363898,-3.));
#1182=CARTESIAN_POINT('Ctrl Pts',(-10.6385491110405,-5.36145088895952,-3.));
#1183=CARTESIAN_POINT('Ctrl Pts',(-10.5,-5.5,-3.));
#1184=CARTESIAN_POINT('Origin',(-10.5,-5.5,-3.5));
#1185=CARTESIAN_POINT('Origin',(-10.5,4.5,-9.50000011920929));
#1186=CARTESIAN_POINT('',(-10.5,4.5,-10.0000001192093));
#1187=CARTESIAN_POINT('Origin',(-10.5,4.5,-9.50000011920929));
#1188=CARTESIAN_POINT('',(-10.5,5.,-9.50000011920929));
#1189=CARTESIAN_POINT('Origin',(-10.5,4.5,-9.50000011920929));
#1190=CARTESIAN_POINT('Origin',(-10.5,4.5,-9.50000011920929));
#1191=CARTESIAN_POINT('Origin',(-10.5,4.5,-5.50000005960464));
#1192=CARTESIAN_POINT('',(-10.5,5.,-3.5));
#1193=CARTESIAN_POINT('Origin',(-10.5,4.5,-3.5));
#1194=CARTESIAN_POINT('',(-10.5,5.,-5.50000005960464));
#1195=CARTESIAN_POINT('Origin',(-10.5,5.5,-3.5));
#1196=CARTESIAN_POINT('',(-10.5,5.5,-3.));
#1197=CARTESIAN_POINT('Ctrl Pts',(-10.5,5.5,-3.));
#1198=CARTESIAN_POINT('Ctrl Pts',(-10.6385491110405,5.36145088895952,-3.));
#1199=CARTESIAN_POINT('Ctrl Pts',(-10.8019563580944,5.192388363898,-3.));
#1200=CARTESIAN_POINT('Ctrl Pts',(-10.9552140000511,4.90763476342456,-3.));
#1201=CARTESIAN_POINT('Ctrl Pts',(-11.,4.76141330715335,-3.));
#1202=CARTESIAN_POINT('Ctrl Pts',(-11.,4.63397459621556,-3.));
#1203=CARTESIAN_POINT('Origin',(-10.5,5.5,-3.5));
#1204=CARTESIAN_POINT('Origin',(10.5,-4.5,-9.50000011920929));
#1205=CARTESIAN_POINT('',(10.5,-4.5,-10.0000001192093));
#1206=CARTESIAN_POINT('Origin',(10.5,-4.5,-9.50000011920929));
#1207=CARTESIAN_POINT('',(10.5,-5.,-9.50000011920929));
#1208=CARTESIAN_POINT('Origin',(10.5,-4.5,-9.50000011920929));
#1209=CARTESIAN_POINT('Origin',(10.5,-4.5,-9.50000011920929));
#1210=CARTESIAN_POINT('Origin',(10.5,-4.5,-3.00000002483527));
#1211=CARTESIAN_POINT('',(10.5,-5.,-3.5));
#1212=CARTESIAN_POINT('Origin',(10.5,-4.5,-3.5));
#1213=CARTESIAN_POINT('',(10.5,-5.,-3.00000002483527));
#1214=CARTESIAN_POINT('Origin',(10.5,-5.5,-3.5));
#1215=CARTESIAN_POINT('',(10.5,-5.5,-3.));
#1216=CARTESIAN_POINT('Ctrl Pts',(10.5,-5.5,-3.));
#1217=CARTESIAN_POINT('Ctrl Pts',(10.6385491110405,-5.36145088895952,-3.));
#1218=CARTESIAN_POINT('Ctrl Pts',(10.8019563580944,-5.192388363898,-3.));
#1219=CARTESIAN_POINT('Ctrl Pts',(10.9552140000511,-4.90763476342456,-3.));
#1220=CARTESIAN_POINT('Ctrl Pts',(11.,-4.76141330715334,-3.));
#1221=CARTESIAN_POINT('Ctrl Pts',(11.,-4.63397459621556,-3.));
#1222=CARTESIAN_POINT('Origin',(10.5,-5.5,-3.5));
#1223=CARTESIAN_POINT('Origin',(5.5,-4.5,-9.50000011920929));
#1224=CARTESIAN_POINT('',(5.5,-4.5,-10.0000001192093));
#1225=CARTESIAN_POINT('',(5.5,-5.,-9.50000011920929));
#1226=CARTESIAN_POINT('Origin',(10.5,4.5,-9.50000011920929));
#1227=CARTESIAN_POINT('',(10.5,5.,-9.50000011920929));
#1228=CARTESIAN_POINT('',(10.5,4.5,-10.0000001192093));
#1229=CARTESIAN_POINT('Origin',(10.5,4.5,-9.50000011920929));
#1230=CARTESIAN_POINT('Origin',(10.5,4.5,-9.50000011920929));
#1231=CARTESIAN_POINT('Origin',(10.5,4.5,-9.50000011920929));
#1232=CARTESIAN_POINT('Origin',(10.5,4.5,-5.50000005960464));
#1233=CARTESIAN_POINT('',(10.5,5.,-3.5));
#1234=CARTESIAN_POINT('Origin',(10.5,4.5,-3.5));
#1235=CARTESIAN_POINT('',(10.5,5.,-5.50000005960464));
#1236=CARTESIAN_POINT('Origin',(10.5,5.5,-3.5));
#1237=CARTESIAN_POINT('',(10.5,5.5,-3.));
#1238=CARTESIAN_POINT('Ctrl Pts',(11.,4.63397459621556,-3.));
#1239=CARTESIAN_POINT('Ctrl Pts',(11.,4.76141330715335,-3.));
#1240=CARTESIAN_POINT('Ctrl Pts',(10.9552140000511,4.90763476342456,-3.));
#1241=CARTESIAN_POINT('Ctrl Pts',(10.8019563580944,5.192388363898,-3.));
#1242=CARTESIAN_POINT('Ctrl Pts',(10.6385491110405,5.36145088895952,-3.));
#1243=CARTESIAN_POINT('Ctrl Pts',(10.5,5.5,-3.));
#1244=CARTESIAN_POINT('Origin',(10.5,5.5,-3.5));
#1245=CARTESIAN_POINT('Origin',(10.5,5.5,-9.50000011920929));
#1246=CARTESIAN_POINT('',(10.5,5.5,-10.0000001192093));
#1247=CARTESIAN_POINT('Origin',(5.5,4.5,-9.50000011920929));
#1248=CARTESIAN_POINT('',(5.5,4.5,-10.0000001192093));
#1249=CARTESIAN_POINT('',(5.5,5.,-9.50000011920929));
#1250=CARTESIAN_POINT('Origin',(-10.5,-5.5,-9.50000011920929));
#1251=CARTESIAN_POINT('',(-10.5,-5.5,-10.0000001192093));
#1252=CARTESIAN_POINT('Origin',(11.,-5.,-3.00000004967054));
#1253=CARTESIAN_POINT('',(5.5,-5.,-3.5));
#1254=CARTESIAN_POINT('Origin',(5.5,-5.5,-3.5));
#1255=CARTESIAN_POINT('',(5.5,-5.5,-3.));
#1256=CARTESIAN_POINT('Origin',(0.,0.,-10.0000001192093));
#1257=CARTESIAN_POINT('Origin',(0.,0.,-3.));
#1258=CARTESIAN_POINT('',(-19.,4.33012701892219,-3.));
#1259=CARTESIAN_POINT('',(-21.0594396886527,4.33012701892219,-3.));
#1260=CARTESIAN_POINT('',(-16.,4.33012701892219,-3.));
#1261=CARTESIAN_POINT('',(21.0594396886527,4.33012701892219,-3.));
#1262=CARTESIAN_POINT('Origin',(0.,0.,-3.));
#1263=CARTESIAN_POINT('',(19.,4.33012701892219,-3.));
#1264=CARTESIAN_POINT('',(16.,4.33012701892219,-3.));
#1265=CARTESIAN_POINT('',(19.,-4.33012701892219,-3.));
#1266=CARTESIAN_POINT('',(19.,0.,-3.));
#1267=CARTESIAN_POINT('',(21.0594396886527,-4.33012701892219,-3.));
#1268=CARTESIAN_POINT('',(16.,-4.33012701892219,-3.));
#1269=CARTESIAN_POINT('',(-21.0594396886527,-4.33012701892219,-3.));
#1270=CARTESIAN_POINT('Origin',(0.,0.,-3.));
#1271=CARTESIAN_POINT('',(-19.,-4.33012701892219,-3.));
#1272=CARTESIAN_POINT('',(-16.,-4.33012701892219,-3.));
#1273=CARTESIAN_POINT('',(-19.,0.,-3.));
#1274=CARTESIAN_POINT('',(-18.588457500406,9.00000013411045,-3.));
#1275=CARTESIAN_POINT('Origin',(-15.588457500406,9.00000013411045,-3.));
#1276=CARTESIAN_POINT('',(-3.,-18.0000002682209,-3.));
#1277=CARTESIAN_POINT('Origin',(-2.20436427131282E-15,-18.0000002682209,
-3.));
#1278=CARTESIAN_POINT('',(12.588457500406,-9.00000013411045,-3.));
#1279=CARTESIAN_POINT('Origin',(15.588457500406,-9.00000013411045,-3.));
#1280=CARTESIAN_POINT('',(-3.,18.0000002682209,-3.));
#1281=CARTESIAN_POINT('Origin',(0.,18.0000002682209,-3.));
#1282=CARTESIAN_POINT('',(-18.588457500406,-9.00000013411045,-3.));
#1283=CARTESIAN_POINT('Origin',(-15.588457500406,-9.00000013411045,-3.));
#1284=CARTESIAN_POINT('',(12.588457500406,9.00000013411044,-3.));
#1285=CARTESIAN_POINT('Origin',(15.588457500406,9.00000013411044,-3.));
#1286=CARTESIAN_POINT('',(5.5,5.5,-3.));
#1287=CARTESIAN_POINT('Origin',(5.5,5.5,-3.5));
#1288=CARTESIAN_POINT('',(5.5,5.,-3.5));
#1289=CARTESIAN_POINT('Origin',(11.,5.,-8.00000011920929));
#1290=CARTESIAN_POINT('Origin',(19.,0.,-4.25000005561189));
#1291=CARTESIAN_POINT('Origin',(19.,0.,-5.5));
#1292=CARTESIAN_POINT('Origin',(-19.,0.,-4.25000005561189));
#1293=CARTESIAN_POINT('Origin',(-19.,0.,-5.5));
#1294=CARTESIAN_POINT('Origin',(-16.,0.,-5.5));
#1295=CARTESIAN_POINT('',(-21.5,1.45527318716155E-15,-0.500000000000001));
#1296=CARTESIAN_POINT('Ctrl Pts',(-21.5,4.16333634234434E-16,-0.500000000000001));
#1297=CARTESIAN_POINT('Ctrl Pts',(-21.5,-0.63027017950463,-0.500000000000001));
#1298=CARTESIAN_POINT('Ctrl Pts',(-21.4695000989951,-1.30099492730013,-0.626430722818018));
#1299=CARTESIAN_POINT('Ctrl Pts',(-21.3593029180841,-2.53223244975823,-1.13742463367567));
#1300=CARTESIAN_POINT('Ctrl Pts',(-21.2810978238969,-3.09293032193342,-1.52186251006794));
#1301=CARTESIAN_POINT('Ctrl Pts',(-21.1575939760223,-3.83374754083781,-2.26267972897234));
#1302=CARTESIAN_POINT('Ctrl Pts',(-21.1053124874261,-4.10702607179145,-2.61357782435282));
#1303=CARTESIAN_POINT('Ctrl Pts',(-21.0594396886527,-4.33012701892219,-3.));
#1304=CARTESIAN_POINT('Ctrl Pts',(-21.0594396886527,4.33012701892219,-3.));
#1305=CARTESIAN_POINT('Ctrl Pts',(-21.1053124874261,4.10702607179145,-2.61357782435282));
#1306=CARTESIAN_POINT('Ctrl Pts',(-21.1575939760223,3.83374754083781,-2.26267972897234));
#1307=CARTESIAN_POINT('Ctrl Pts',(-21.2810978238969,3.09293032193342,-1.52186251006794));
#1308=CARTESIAN_POINT('Ctrl Pts',(-21.3593029180841,2.53223244975823,-1.13742463367568));
#1309=CARTESIAN_POINT('Ctrl Pts',(-21.4695000989951,1.30099492730013,-0.626430722818018));
#1310=CARTESIAN_POINT('Ctrl Pts',(-21.5,0.63027017950463,-0.500000000000001));
#1311=CARTESIAN_POINT('Ctrl Pts',(-21.5,1.38777878078145E-16,-0.500000000000001));
#1312=CARTESIAN_POINT('Origin',(0.,0.,0.));
#1313=CARTESIAN_POINT('',(-21.5,-2.22044604925031E-15,2.));
#1314=CARTESIAN_POINT('',(-21.5,2.63299061816681E-15,0.));
#1315=CARTESIAN_POINT('Origin',(0.,0.,2.));
#1316=CARTESIAN_POINT('Ctrl Pts',(21.0594396886527,-4.33012701892219,-3.));
#1317=CARTESIAN_POINT('Ctrl Pts',(21.1053124874261,-4.10702607179145,-2.61357782435282));
#1318=CARTESIAN_POINT('Ctrl Pts',(21.1575939760223,-3.83374754083781,-2.26267972897234));
#1319=CARTESIAN_POINT('Ctrl Pts',(21.2810978238969,-3.09293032193342,-1.52186251006794));
#1320=CARTESIAN_POINT('Ctrl Pts',(21.3593029180841,-2.53223244975823,-1.13742463367568));
#1321=CARTESIAN_POINT('Ctrl Pts',(21.4695000989951,-1.30099492730013,-0.626430722818018));
#1322=CARTESIAN_POINT('Ctrl Pts',(21.5,-0.63027017950463,-0.500000000000001));
#1323=CARTESIAN_POINT('Ctrl Pts',(21.5,0.63027017950463,-0.500000000000001));
#1324=CARTESIAN_POINT('Ctrl Pts',(21.4695000989951,1.30099492730013,-0.626430722818018));
#1325=CARTESIAN_POINT('Ctrl Pts',(21.3593029180841,2.53223244975823,-1.13742463367568));
#1326=CARTESIAN_POINT('Ctrl Pts',(21.2810978238969,3.09293032193342,-1.52186251006794));
#1327=CARTESIAN_POINT('Ctrl Pts',(21.1575939760223,3.83374754083781,-2.26267972897234));
#1328=CARTESIAN_POINT('Ctrl Pts',(21.1053124874261,4.10702607179145,-2.61357782435282));
#1329=CARTESIAN_POINT('Ctrl Pts',(21.0594396886527,4.33012701892219,-3.));
#1330=CARTESIAN_POINT('Origin',(16.,0.,-5.5));
#1331=CARTESIAN_POINT('Origin',(-15.588457500406,-9.00000013411045,0.));
#1332=CARTESIAN_POINT('',(-17.188457500406,-9.00000013411045,0.));
#1333=CARTESIAN_POINT('Origin',(-15.588457500406,-9.00000013411045,0.));
#1334=CARTESIAN_POINT('',(-17.188457500406,-9.00000013411045,2.));
#1335=CARTESIAN_POINT('',(-17.188457500406,-9.00000013411045,0.));
#1336=CARTESIAN_POINT('Origin',(-15.588457500406,-9.00000013411045,2.));
#1337=CARTESIAN_POINT('Origin',(0.,0.,0.));
#1338=CARTESIAN_POINT('',(-18.588457500406,9.00000013411045,0.));
#1339=CARTESIAN_POINT('Origin',(-15.588457500406,9.00000013411045,0.));
#1340=CARTESIAN_POINT('',(-17.188457500406,9.00000013411045,0.));
#1341=CARTESIAN_POINT('Origin',(-15.588457500406,9.00000013411045,0.));
#1342=CARTESIAN_POINT('Origin',(0.,0.,0.));
#1343=CARTESIAN_POINT('',(-3.,-18.0000002682209,0.));
#1344=CARTESIAN_POINT('Origin',(-2.20436427131282E-15,-18.0000002682209,
0.));
#1345=CARTESIAN_POINT('',(-1.6,-18.0000002682209,0.));
#1346=CARTESIAN_POINT('Origin',(-2.20436427131282E-15,-18.0000002682209,
0.));
#1347=CARTESIAN_POINT('Origin',(0.,0.,0.));
#1348=CARTESIAN_POINT('',(12.588457500406,-9.00000013411045,0.));
#1349=CARTESIAN_POINT('Origin',(15.588457500406,-9.00000013411045,0.));
#1350=CARTESIAN_POINT('',(13.988457500406,-9.00000013411045,0.));
#1351=CARTESIAN_POINT('Origin',(15.588457500406,-9.00000013411045,0.));
#1352=CARTESIAN_POINT('Origin',(0.,0.,0.));
#1353=CARTESIAN_POINT('',(-3.,18.0000002682209,0.));
#1354=CARTESIAN_POINT('Origin',(0.,18.0000002682209,0.));
#1355=CARTESIAN_POINT('',(-1.6,18.0000002682209,0.));
#1356=CARTESIAN_POINT('Origin',(0.,18.0000002682209,0.));
#1357=CARTESIAN_POINT('Origin',(0.,0.,0.));
#1358=CARTESIAN_POINT('',(-18.588457500406,-9.00000013411045,0.));
#1359=CARTESIAN_POINT('Origin',(-15.588457500406,-9.00000013411045,0.));
#1360=CARTESIAN_POINT('Origin',(0.,0.,0.));
#1361=CARTESIAN_POINT('',(12.588457500406,9.00000013411044,0.));
#1362=CARTESIAN_POINT('Origin',(15.588457500406,9.00000013411044,0.));
#1363=CARTESIAN_POINT('',(13.988457500406,9.00000013411044,0.));
#1364=CARTESIAN_POINT('Origin',(15.588457500406,9.00000013411044,0.));
#1365=CARTESIAN_POINT('Origin',(-15.588457500406,9.00000013411045,0.));
#1366=CARTESIAN_POINT('',(-17.188457500406,9.00000013411045,2.));
#1367=CARTESIAN_POINT('Origin',(-15.588457500406,9.00000013411045,2.));
#1368=CARTESIAN_POINT('',(-17.188457500406,9.00000013411045,0.));
#1369=CARTESIAN_POINT('Origin',(15.588457500406,-9.00000013411045,0.));
#1370=CARTESIAN_POINT('',(13.988457500406,-9.00000013411045,2.));
#1371=CARTESIAN_POINT('Origin',(15.588457500406,-9.00000013411045,2.));
#1372=CARTESIAN_POINT('',(13.988457500406,-9.00000013411045,0.));
#1373=CARTESIAN_POINT('Origin',(-2.20436427131282E-15,-18.0000002682209,
0.));
#1374=CARTESIAN_POINT('',(-1.6,-18.0000002682209,2.));
#1375=CARTESIAN_POINT('Origin',(-2.20436427131282E-15,-18.0000002682209,
2.));
#1376=CARTESIAN_POINT('',(-1.6,-18.0000002682209,0.));
#1377=CARTESIAN_POINT('Origin',(0.,18.0000002682209,0.));
#1378=CARTESIAN_POINT('',(-1.6,18.0000002682209,2.));
#1379=CARTESIAN_POINT('Origin',(0.,18.0000002682209,2.));
#1380=CARTESIAN_POINT('',(-1.6,18.0000002682209,0.));
#1381=CARTESIAN_POINT('Origin',(15.588457500406,9.00000013411044,0.));
#1382=CARTESIAN_POINT('',(13.988457500406,9.00000013411044,2.));
#1383=CARTESIAN_POINT('Origin',(15.588457500406,9.00000013411044,2.));
#1384=CARTESIAN_POINT('',(13.988457500406,9.00000013411044,0.));
#1385=CARTESIAN_POINT('Origin',(0.,0.,2.));
#1386=CARTESIAN_POINT('Origin',(15.588457500406,9.00000013411044,0.));
#1387=CARTESIAN_POINT('',(12.588457500406,9.00000013411044,0.));
#1388=CARTESIAN_POINT('Origin',(-15.588457500406,-9.00000013411045,0.));
#1389=CARTESIAN_POINT('',(-18.588457500406,-9.00000013411045,0.));
#1390=CARTESIAN_POINT('Origin',(0.,18.0000002682209,0.));
#1391=CARTESIAN_POINT('',(-3.,18.0000002682209,0.));
#1392=CARTESIAN_POINT('Origin',(15.588457500406,-9.00000013411045,0.));
#1393=CARTESIAN_POINT('',(12.588457500406,-9.00000013411045,0.));
#1394=CARTESIAN_POINT('Origin',(-2.20436427131282E-15,-18.0000002682209,
0.));
#1395=CARTESIAN_POINT('',(-3.,-18.0000002682209,0.));
#1396=CARTESIAN_POINT('Origin',(-15.588457500406,9.00000013411045,0.));
#1397=CARTESIAN_POINT('',(-18.588457500406,9.00000013411045,0.));
#1398=UNCERTAINTY_MEASURE_WITH_UNIT(LENGTH_MEASURE(0.01),#1402,
'DISTANCE_ACCURACY_VALUE',
'Maximum model space distance between geometric entities at asserted c
onnectivities');
#1399=UNCERTAINTY_MEASURE_WITH_UNIT(LENGTH_MEASURE(0.01),#1402,
'DISTANCE_ACCURACY_VALUE',
'Maximum model space distance between geometric entities at asserted c
onnectivities');
#1400=(
GEOMETRIC_REPRESENTATION_CONTEXT(3)
GLOBAL_UNCERTAINTY_ASSIGNED_CONTEXT((#1398))
GLOBAL_UNIT_ASSIGNED_CONTEXT((#1402,#1403,#1404))
REPRESENTATION_CONTEXT('','3D')
);
#1401=(
GEOMETRIC_REPRESENTATION_CONTEXT(3)
GLOBAL_UNCERTAINTY_ASSIGNED_CONTEXT((#1399))
GLOBAL_UNIT_ASSIGNED_CONTEXT((#1402,#1403,#1404))
REPRESENTATION_CONTEXT('','3D')
);
#1402=(
LENGTH_UNIT()
NAMED_UNIT(*)
SI_UNIT(.MILLI.,.METRE.)
);
#1403=(
NAMED_UNIT(*)
PLANE_ANGLE_UNIT()
SI_UNIT($,.RADIAN.)
);
#1404=(
NAMED_UNIT(*)
SI_UNIT($,.STERADIAN.)
SOLID_ANGLE_UNIT()
);
#1405=SHAPE_DEFINITION_REPRESENTATION(#1406,#1407);
#1406=PRODUCT_DEFINITION_SHAPE('',$,#1409);
#1407=SHAPE_REPRESENTATION('',(#776),#1400);
#1408=PRODUCT_DEFINITION_CONTEXT('part definition',#1413,'design');
#1409=PRODUCT_DEFINITION('J5','J5 v6',#1410,#1408);
#1410=PRODUCT_DEFINITION_FORMATION('',$,#1415);
#1411=PRODUCT_RELATED_PRODUCT_CATEGORY('J5 v6','J5 v6',(#1415));
#1412=APPLICATION_PROTOCOL_DEFINITION('international standard',
'automotive_design',2009,#1413);
#1413=APPLICATION_CONTEXT(
'Core Data for Automotive Mechanical Design Process');
#1414=PRODUCT_CONTEXT('part definition',#1413,'mechanical');
#1415=PRODUCT('J5','J5 v6',$,(#1414));
#1416=PRESENTATION_STYLE_ASSIGNMENT((#1417));
#1417=SURFACE_STYLE_USAGE(.BOTH.,#1418);
#1418=SURFACE_SIDE_STYLE('',(#1419));
#1419=SURFACE_STYLE_FILL_AREA(#1420);
#1420=FILL_AREA_STYLE('Steel - Satin',(#1421));
#1421=FILL_AREA_STYLE_COLOUR('Steel - Satin',#1422);
#1422=COLOUR_RGB('Steel - Satin',0.627450980392157,0.627450980392157,0.627450980392157);
ENDSEC;
END-ISO-10303-21;
