ISO-10303-21;
HEADER;
/* Generated by software containing ST-Developer
 * from STEP Tools, Inc. (www.steptools.com) 
 */

FILE_DESCRIPTION(
/* description */ (''),
/* implementation_level */ '2;1');

FILE_NAME(
/* name */ 'J4-motor-mount.step',
/* time_stamp */ '2026-10-05T21:01:56+11:00',
/* author */ (''),
/* organization */ (''),
/* preprocessor_version */ 'ST-DEVELOPER v20.2',
/* originating_system */ 'Autodesk Translation Framework v15.15.0.0',
/* authorisation */ '');

FILE_SCHEMA (('AUTOMOTIVE_DESIGN { 1 0 10303 214 3 1 1 }'));
ENDSEC;

DATA;
#10=MECHANICAL_DESIGN_GEOMETRIC_PRESENTATION_REPRESENTATION('',(#13),#779);
#11=SHAPE_REPRESENTATION_RELATIONSHIP('SRR','None',#785,#12);
#12=ADVANCED_BREP_SHAPE_REPRESENTATION('',(#14),#778);
#13=STYLED_ITEM('',(#794),#14);
#14=MANIFOLD_SOLID_BREP('Body7',#465);
#15=FACE_BOUND('',#62,.T.);
#16=FACE_BOUND('',#65,.T.);
#17=FACE_BOUND('',#72,.T.);
#18=FACE_BOUND('',#75,.T.);
#19=FACE_BOUND('',#76,.T.);
#20=FACE_BOUND('',#79,.T.);
#21=PLANE('',#470);
#22=PLANE('',#475);
#23=PLANE('',#477);
#24=PLANE('',#478);
#25=PLANE('',#479);
#26=PLANE('',#480);
#27=PLANE('',#481);
#28=PLANE('',#482);
#29=PLANE('',#490);
#30=PLANE('',#491);
#31=PLANE('',#492);
#32=PLANE('',#493);
#33=PLANE('',#501);
#34=PLANE('',#507);
#35=PLANE('',#509);
#36=FACE_OUTER_BOUND('',#60,.T.);
#37=FACE_OUTER_BOUND('',#61,.T.);
#38=FACE_OUTER_BOUND('',#63,.T.);
#39=FACE_OUTER_BOUND('',#64,.T.);
#40=FACE_OUTER_BOUND('',#66,.T.);
#41=FACE_OUTER_BOUND('',#67,.T.);
#42=FACE_OUTER_BOUND('',#68,.T.);
#43=FACE_OUTER_BOUND('',#69,.T.);
#44=FACE_OUTER_BOUND('',#70,.T.);
#45=FACE_OUTER_BOUND('',#71,.T.);
#46=FACE_OUTER_BOUND('',#73,.T.);
#47=FACE_OUTER_BOUND('',#74,.T.);
#48=FACE_OUTER_BOUND('',#77,.T.);
#49=FACE_OUTER_BOUND('',#78,.T.);
#50=FACE_OUTER_BOUND('',#80,.T.);
#51=FACE_OUTER_BOUND('',#81,.T.);
#52=FACE_OUTER_BOUND('',#82,.T.);
#53=FACE_OUTER_BOUND('',#83,.T.);
#54=FACE_OUTER_BOUND('',#84,.T.);
#55=FACE_OUTER_BOUND('',#85,.T.);
#56=FACE_OUTER_BOUND('',#86,.T.);
#57=FACE_OUTER_BOUND('',#87,.T.);
#58=FACE_OUTER_BOUND('',#88,.T.);
#59=FACE_OUTER_BOUND('',#89,.T.);
#60=EDGE_LOOP('',(#304,#305,#306,#307));
#61=EDGE_LOOP('',(#308));
#62=EDGE_LOOP('',(#309));
#63=EDGE_LOOP('',(#310,#311,#312,#313));
#64=EDGE_LOOP('',(#314));
#65=EDGE_LOOP('',(#315));
#66=EDGE_LOOP('',(#316,#317,#318,#319));
#67=EDGE_LOOP('',(#320,#321,#322,#323));
#68=EDGE_LOOP('',(#324,#325,#326,#327));
#69=EDGE_LOOP('',(#328,#329,#330,#331,#332,#333));
#70=EDGE_LOOP('',(#334,#335,#336,#337));
#71=EDGE_LOOP('',(#338,#339,#340,#341,#342,#343,#344,#345,#346,#347,#348,
#349,#350,#351));
#72=EDGE_LOOP('',(#352,#353,#354,#355));
#73=EDGE_LOOP('',(#356,#357,#358,#359));
#74=EDGE_LOOP('',(#360,#361,#362,#363));
#75=EDGE_LOOP('',(#364));
#76=EDGE_LOOP('',(#365));
#77=EDGE_LOOP('',(#366,#367,#368,#369,#370,#371,#372,#373));
#78=EDGE_LOOP('',(#374,#375,#376,#377,#378,#379,#380,#381,#382,#383,#384,
#385,#386,#387));
#79=EDGE_LOOP('',(#388,#389,#390,#391));
#80=EDGE_LOOP('',(#392,#393,#394,#395));
#81=EDGE_LOOP('',(#396,#397,#398,#399));
#82=EDGE_LOOP('',(#400,#401,#402,#403));
#83=EDGE_LOOP('',(#404,#405,#406,#407));
#84=EDGE_LOOP('',(#408,#409,#410,#411));
#85=EDGE_LOOP('',(#412,#413,#414,#415));
#86=EDGE_LOOP('',(#416,#417,#418,#419));
#87=EDGE_LOOP('',(#420,#421,#422,#423));
#88=EDGE_LOOP('',(#424,#425,#426,#427));
#89=EDGE_LOOP('',(#428,#429,#430,#431));
#90=LINE('',#650,#134);
#91=LINE('',#659,#135);
#92=LINE('',#667,#136);
#93=LINE('',#669,#137);
#94=LINE('',#671,#138);
#95=LINE('',#672,#139);
#96=LINE('',#676,#140);
#97=LINE('',#678,#141);
#98=LINE('',#680,#142);
#99=LINE('',#681,#143);
#100=LINE('',#684,#144);
#101=LINE('',#686,#145);
#102=LINE('',#687,#146);
#103=LINE('',#690,#147);
#104=LINE('',#691,#148);
#105=LINE('',#693,#149);
#106=LINE('',#694,#150);
#107=LINE('',#695,#151);
#108=LINE('',#698,#152);
#109=LINE('',#700,#153);
#110=LINE('',#701,#154);
#111=LINE('',#704,#155);
#112=LINE('',#706,#156);
#113=LINE('',#707,#157);
#114=LINE('',#709,#158);
#115=LINE('',#713,#159);
#116=LINE('',#717,#160);
#117=LINE('',#729,#161);
#118=LINE('',#730,#162);
#119=LINE('',#733,#163);
#120=LINE('',#734,#164);
#121=LINE('',#737,#165);
#122=LINE('',#738,#166);
#123=LINE('',#743,#167);
#124=LINE('',#747,#168);
#125=LINE('',#749,#169);
#126=LINE('',#760,#170);
#127=LINE('',#761,#171);
#128=LINE('',#763,#172);
#129=LINE('',#765,#173);
#130=LINE('',#768,#174);
#131=LINE('',#770,#175);
#132=LINE('',#772,#176);
#133=LINE('',#774,#177);
#134=VECTOR('',#517,1.4);
#135=VECTOR('',#528,1.4);
#136=VECTOR('',#537,10.);
#137=VECTOR('',#538,10.);
#138=VECTOR('',#539,10.);
#139=VECTOR('',#540,10.);
#140=VECTOR('',#543,10.);
#141=VECTOR('',#544,10.);
#142=VECTOR('',#545,10.);
#143=VECTOR('',#546,10.);
#144=VECTOR('',#549,10.);
#145=VECTOR('',#550,10.);
#146=VECTOR('',#551,10.);
#147=VECTOR('',#554,10.);
#148=VECTOR('',#555,10.);
#149=VECTOR('',#556,10.);
#150=VECTOR('',#557,10.);
#151=VECTOR('',#558,10.);
#152=VECTOR('',#561,10.);
#153=VECTOR('',#562,10.);
#154=VECTOR('',#563,10.);
#155=VECTOR('',#566,10.);
#156=VECTOR('',#567,10.);
#157=VECTOR('',#568,10.);
#158=VECTOR('',#569,10.);
#159=VECTOR('',#572,10.);
#160=VECTOR('',#575,10.);
#161=VECTOR('',#588,10.);
#162=VECTOR('',#589,10.);
#163=VECTOR('',#592,10.);
#164=VECTOR('',#593,10.);
#165=VECTOR('',#596,10.);
#166=VECTOR('',#597,10.);
#167=VECTOR('',#602,10.);
#168=VECTOR('',#605,10.);
#169=VECTOR('',#608,10.);
#170=VECTOR('',#621,10.);
#171=VECTOR('',#622,10.);
#172=VECTOR('',#625,10.);
#173=VECTOR('',#628,10.);
#174=VECTOR('',#633,10.);
#175=VECTOR('',#636,10.);
#176=VECTOR('',#639,10.);
#177=VECTOR('',#642,10.);
#178=CIRCLE('',#468,1.4);
#179=CIRCLE('',#469,1.4);
#180=CIRCLE('',#471,1.7);
#181=CIRCLE('',#473,1.4);
#182=CIRCLE('',#474,1.4);
#183=CIRCLE('',#476,1.7);
#184=CIRCLE('',#483,35.0000005215406);
#185=CIRCLE('',#484,34.5);
#186=CIRCLE('',#485,35.0000005215406);
#187=CIRCLE('',#486,2.5);
#188=CIRCLE('',#487,34.9961375029729);
#189=CIRCLE('',#488,2.5);
#190=CIRCLE('',#489,35.0000005215406);
#191=CIRCLE('',#494,35.0000005215406);
#192=CIRCLE('',#495,34.5);
#193=CIRCLE('',#496,35.0000005215406);
#194=CIRCLE('',#497,35.0000005215406);
#195=CIRCLE('',#498,2.5);
#196=CIRCLE('',#499,34.9961375029729);
#197=CIRCLE('',#500,2.5);
#198=VERTEX_POINT('',#647);
#199=VERTEX_POINT('',#649);
#200=VERTEX_POINT('',#653);
#201=VERTEX_POINT('',#656);
#202=VERTEX_POINT('',#658);
#203=VERTEX_POINT('',#662);
#204=VERTEX_POINT('',#665);
#205=VERTEX_POINT('',#666);
#206=VERTEX_POINT('',#668);
#207=VERTEX_POINT('',#670);
#208=VERTEX_POINT('',#674);
#209=VERTEX_POINT('',#675);
#210=VERTEX_POINT('',#677);
#211=VERTEX_POINT('',#679);
#212=VERTEX_POINT('',#683);
#213=VERTEX_POINT('',#685);
#214=VERTEX_POINT('',#689);
#215=VERTEX_POINT('',#692);
#216=VERTEX_POINT('',#697);
#217=VERTEX_POINT('',#699);
#218=VERTEX_POINT('',#703);
#219=VERTEX_POINT('',#705);
#220=VERTEX_POINT('',#708);
#221=VERTEX_POINT('',#710);
#222=VERTEX_POINT('',#712);
#223=VERTEX_POINT('',#714);
#224=VERTEX_POINT('',#716);
#225=VERTEX_POINT('',#719);
#226=VERTEX_POINT('',#720);
#227=VERTEX_POINT('',#722);
#228=VERTEX_POINT('',#724);
#229=VERTEX_POINT('',#728);
#230=VERTEX_POINT('',#732);
#231=VERTEX_POINT('',#736);
#232=VERTEX_POINT('',#740);
#233=VERTEX_POINT('',#742);
#234=VERTEX_POINT('',#744);
#235=VERTEX_POINT('',#746);
#236=VERTEX_POINT('',#750);
#237=VERTEX_POINT('',#751);
#238=VERTEX_POINT('',#753);
#239=VERTEX_POINT('',#755);
#240=EDGE_CURVE('',#198,#198,#178,.T.);
#241=EDGE_CURVE('',#198,#199,#90,.T.);
#242=EDGE_CURVE('',#199,#199,#179,.T.);
#243=EDGE_CURVE('',#200,#200,#180,.T.);
#244=EDGE_CURVE('',#201,#201,#181,.T.);
#245=EDGE_CURVE('',#201,#202,#91,.T.);
#246=EDGE_CURVE('',#202,#202,#182,.T.);
#247=EDGE_CURVE('',#203,#203,#183,.T.);
#248=EDGE_CURVE('',#204,#205,#92,.T.);
#249=EDGE_CURVE('',#206,#205,#93,.T.);
#250=EDGE_CURVE('',#207,#206,#94,.T.);
#251=EDGE_CURVE('',#204,#207,#95,.T.);
#252=EDGE_CURVE('',#208,#209,#96,.T.);
#253=EDGE_CURVE('',#210,#209,#97,.T.);
#254=EDGE_CURVE('',#211,#210,#98,.T.);
#255=EDGE_CURVE('',#208,#211,#99,.T.);
#256=EDGE_CURVE('',#212,#208,#100,.T.);
#257=EDGE_CURVE('',#213,#211,#101,.T.);
#258=EDGE_CURVE('',#212,#213,#102,.T.);
#259=EDGE_CURVE('',#214,#203,#103,.T.);
#260=EDGE_CURVE('',#203,#200,#104,.T.);
#261=EDGE_CURVE('',#200,#215,#105,.T.);
#262=EDGE_CURVE('',#206,#215,#106,.T.);
#263=EDGE_CURVE('',#214,#205,#107,.T.);
#264=EDGE_CURVE('',#216,#207,#108,.T.);
#265=EDGE_CURVE('',#216,#217,#109,.T.);
#266=EDGE_CURVE('',#204,#217,#110,.T.);
#267=EDGE_CURVE('',#215,#218,#111,.T.);
#268=EDGE_CURVE('',#218,#219,#112,.T.);
#269=EDGE_CURVE('',#219,#213,#113,.T.);
#270=EDGE_CURVE('',#210,#220,#114,.T.);
#271=EDGE_CURVE('',#221,#220,#184,.T.);
#272=EDGE_CURVE('',#221,#222,#115,.T.);
#273=EDGE_CURVE('',#223,#222,#185,.T.);
#274=EDGE_CURVE('',#223,#224,#116,.T.);
#275=EDGE_CURVE('',#216,#224,#186,.T.);
#276=EDGE_CURVE('',#225,#226,#187,.T.);
#277=EDGE_CURVE('',#226,#227,#188,.T.);
#278=EDGE_CURVE('',#227,#228,#189,.T.);
#279=EDGE_CURVE('',#228,#225,#190,.T.);
#280=EDGE_CURVE('',#229,#209,#117,.T.);
#281=EDGE_CURVE('',#220,#229,#118,.T.);
#282=EDGE_CURVE('',#230,#219,#119,.T.);
#283=EDGE_CURVE('',#212,#230,#120,.T.);
#284=EDGE_CURVE('',#231,#218,#121,.T.);
#285=EDGE_CURVE('',#231,#214,#122,.T.);
#286=EDGE_CURVE('',#217,#232,#191,.T.);
#287=EDGE_CURVE('',#232,#233,#123,.T.);
#288=EDGE_CURVE('',#233,#234,#192,.T.);
#289=EDGE_CURVE('',#234,#235,#124,.T.);
#290=EDGE_CURVE('',#235,#229,#193,.T.);
#291=EDGE_CURVE('',#230,#231,#125,.T.);
#292=EDGE_CURVE('',#236,#237,#194,.T.);
#293=EDGE_CURVE('',#237,#238,#195,.T.);
#294=EDGE_CURVE('',#238,#239,#196,.T.);
#295=EDGE_CURVE('',#239,#236,#197,.T.);
#296=EDGE_CURVE('',#226,#239,#126,.T.);
#297=EDGE_CURVE('',#227,#238,#127,.T.);
#298=EDGE_CURVE('',#228,#237,#128,.T.);
#299=EDGE_CURVE('',#225,#236,#129,.T.);
#300=EDGE_CURVE('',#221,#235,#130,.T.);
#301=EDGE_CURVE('',#222,#234,#131,.T.);
#302=EDGE_CURVE('',#223,#233,#132,.T.);
#303=EDGE_CURVE('',#224,#232,#133,.T.);
#304=ORIENTED_EDGE('',*,*,#240,.F.);
#305=ORIENTED_EDGE('',*,*,#241,.T.);
#306=ORIENTED_EDGE('',*,*,#242,.F.);
#307=ORIENTED_EDGE('',*,*,#241,.F.);
#308=ORIENTED_EDGE('',*,*,#243,.F.);
#309=ORIENTED_EDGE('',*,*,#240,.T.);
#310=ORIENTED_EDGE('',*,*,#244,.F.);
#311=ORIENTED_EDGE('',*,*,#245,.T.);
#312=ORIENTED_EDGE('',*,*,#246,.F.);
#313=ORIENTED_EDGE('',*,*,#245,.F.);
#314=ORIENTED_EDGE('',*,*,#247,.F.);
#315=ORIENTED_EDGE('',*,*,#244,.T.);
#316=ORIENTED_EDGE('',*,*,#248,.T.);
#317=ORIENTED_EDGE('',*,*,#249,.F.);
#318=ORIENTED_EDGE('',*,*,#250,.F.);
#319=ORIENTED_EDGE('',*,*,#251,.F.);
#320=ORIENTED_EDGE('',*,*,#252,.T.);
#321=ORIENTED_EDGE('',*,*,#253,.F.);
#322=ORIENTED_EDGE('',*,*,#254,.F.);
#323=ORIENTED_EDGE('',*,*,#255,.F.);
#324=ORIENTED_EDGE('',*,*,#256,.T.);
#325=ORIENTED_EDGE('',*,*,#255,.T.);
#326=ORIENTED_EDGE('',*,*,#257,.F.);
#327=ORIENTED_EDGE('',*,*,#258,.F.);
#328=ORIENTED_EDGE('',*,*,#259,.T.);
#329=ORIENTED_EDGE('',*,*,#260,.T.);
#330=ORIENTED_EDGE('',*,*,#261,.T.);
#331=ORIENTED_EDGE('',*,*,#262,.F.);
#332=ORIENTED_EDGE('',*,*,#249,.T.);
#333=ORIENTED_EDGE('',*,*,#263,.F.);
#334=ORIENTED_EDGE('',*,*,#264,.F.);
#335=ORIENTED_EDGE('',*,*,#265,.T.);
#336=ORIENTED_EDGE('',*,*,#266,.F.);
#337=ORIENTED_EDGE('',*,*,#251,.T.);
#338=ORIENTED_EDGE('',*,*,#262,.T.);
#339=ORIENTED_EDGE('',*,*,#267,.T.);
#340=ORIENTED_EDGE('',*,*,#268,.T.);
#341=ORIENTED_EDGE('',*,*,#269,.T.);
#342=ORIENTED_EDGE('',*,*,#257,.T.);
#343=ORIENTED_EDGE('',*,*,#254,.T.);
#344=ORIENTED_EDGE('',*,*,#270,.T.);
#345=ORIENTED_EDGE('',*,*,#271,.F.);
#346=ORIENTED_EDGE('',*,*,#272,.T.);
#347=ORIENTED_EDGE('',*,*,#273,.F.);
#348=ORIENTED_EDGE('',*,*,#274,.T.);
#349=ORIENTED_EDGE('',*,*,#275,.F.);
#350=ORIENTED_EDGE('',*,*,#264,.T.);
#351=ORIENTED_EDGE('',*,*,#250,.T.);
#352=ORIENTED_EDGE('',*,*,#276,.T.);
#353=ORIENTED_EDGE('',*,*,#277,.T.);
#354=ORIENTED_EDGE('',*,*,#278,.T.);
#355=ORIENTED_EDGE('',*,*,#279,.T.);
#356=ORIENTED_EDGE('',*,*,#253,.T.);
#357=ORIENTED_EDGE('',*,*,#280,.F.);
#358=ORIENTED_EDGE('',*,*,#281,.F.);
#359=ORIENTED_EDGE('',*,*,#270,.F.);
#360=ORIENTED_EDGE('',*,*,#269,.F.);
#361=ORIENTED_EDGE('',*,*,#282,.F.);
#362=ORIENTED_EDGE('',*,*,#283,.F.);
#363=ORIENTED_EDGE('',*,*,#258,.T.);
#364=ORIENTED_EDGE('',*,*,#242,.T.);
#365=ORIENTED_EDGE('',*,*,#246,.T.);
#366=ORIENTED_EDGE('',*,*,#284,.T.);
#367=ORIENTED_EDGE('',*,*,#267,.F.);
#368=ORIENTED_EDGE('',*,*,#261,.F.);
#369=ORIENTED_EDGE('',*,*,#243,.T.);
#370=ORIENTED_EDGE('',*,*,#260,.F.);
#371=ORIENTED_EDGE('',*,*,#247,.T.);
#372=ORIENTED_EDGE('',*,*,#259,.F.);
#373=ORIENTED_EDGE('',*,*,#285,.F.);
#374=ORIENTED_EDGE('',*,*,#266,.T.);
#375=ORIENTED_EDGE('',*,*,#286,.T.);
#376=ORIENTED_EDGE('',*,*,#287,.T.);
#377=ORIENTED_EDGE('',*,*,#288,.T.);
#378=ORIENTED_EDGE('',*,*,#289,.T.);
#379=ORIENTED_EDGE('',*,*,#290,.T.);
#380=ORIENTED_EDGE('',*,*,#280,.T.);
#381=ORIENTED_EDGE('',*,*,#252,.F.);
#382=ORIENTED_EDGE('',*,*,#256,.F.);
#383=ORIENTED_EDGE('',*,*,#283,.T.);
#384=ORIENTED_EDGE('',*,*,#291,.T.);
#385=ORIENTED_EDGE('',*,*,#285,.T.);
#386=ORIENTED_EDGE('',*,*,#263,.T.);
#387=ORIENTED_EDGE('',*,*,#248,.F.);
#388=ORIENTED_EDGE('',*,*,#292,.T.);
#389=ORIENTED_EDGE('',*,*,#293,.T.);
#390=ORIENTED_EDGE('',*,*,#294,.T.);
#391=ORIENTED_EDGE('',*,*,#295,.T.);
#392=ORIENTED_EDGE('',*,*,#282,.T.);
#393=ORIENTED_EDGE('',*,*,#268,.F.);
#394=ORIENTED_EDGE('',*,*,#284,.F.);
#395=ORIENTED_EDGE('',*,*,#291,.F.);
#396=ORIENTED_EDGE('',*,*,#277,.F.);
#397=ORIENTED_EDGE('',*,*,#296,.T.);
#398=ORIENTED_EDGE('',*,*,#294,.F.);
#399=ORIENTED_EDGE('',*,*,#297,.F.);
#400=ORIENTED_EDGE('',*,*,#278,.F.);
#401=ORIENTED_EDGE('',*,*,#297,.T.);
#402=ORIENTED_EDGE('',*,*,#293,.F.);
#403=ORIENTED_EDGE('',*,*,#298,.F.);
#404=ORIENTED_EDGE('',*,*,#279,.F.);
#405=ORIENTED_EDGE('',*,*,#298,.T.);
#406=ORIENTED_EDGE('',*,*,#292,.F.);
#407=ORIENTED_EDGE('',*,*,#299,.F.);
#408=ORIENTED_EDGE('',*,*,#276,.F.);
#409=ORIENTED_EDGE('',*,*,#299,.T.);
#410=ORIENTED_EDGE('',*,*,#295,.F.);
#411=ORIENTED_EDGE('',*,*,#296,.F.);
#412=ORIENTED_EDGE('',*,*,#271,.T.);
#413=ORIENTED_EDGE('',*,*,#281,.T.);
#414=ORIENTED_EDGE('',*,*,#290,.F.);
#415=ORIENTED_EDGE('',*,*,#300,.F.);
#416=ORIENTED_EDGE('',*,*,#272,.F.);
#417=ORIENTED_EDGE('',*,*,#300,.T.);
#418=ORIENTED_EDGE('',*,*,#289,.F.);
#419=ORIENTED_EDGE('',*,*,#301,.F.);
#420=ORIENTED_EDGE('',*,*,#273,.T.);
#421=ORIENTED_EDGE('',*,*,#301,.T.);
#422=ORIENTED_EDGE('',*,*,#288,.F.);
#423=ORIENTED_EDGE('',*,*,#302,.F.);
#424=ORIENTED_EDGE('',*,*,#274,.F.);
#425=ORIENTED_EDGE('',*,*,#302,.T.);
#426=ORIENTED_EDGE('',*,*,#287,.F.);
#427=ORIENTED_EDGE('',*,*,#303,.F.);
#428=ORIENTED_EDGE('',*,*,#275,.T.);
#429=ORIENTED_EDGE('',*,*,#303,.T.);
#430=ORIENTED_EDGE('',*,*,#286,.F.);
#431=ORIENTED_EDGE('',*,*,#265,.F.);
#432=CYLINDRICAL_SURFACE('',#467,1.4);
#433=CYLINDRICAL_SURFACE('',#472,1.4);
#434=CYLINDRICAL_SURFACE('',#502,34.9961375029729);
#435=CYLINDRICAL_SURFACE('',#503,2.5);
#436=CYLINDRICAL_SURFACE('',#504,35.0000005215406);
#437=CYLINDRICAL_SURFACE('',#505,2.5);
#438=CYLINDRICAL_SURFACE('',#506,35.0000005215406);
#439=CYLINDRICAL_SURFACE('',#508,34.5);
#440=CYLINDRICAL_SURFACE('',#510,35.0000005215406);
#441=ADVANCED_FACE('',(#36),#432,.F.);
#442=ADVANCED_FACE('',(#37,#15),#21,.F.);
#443=ADVANCED_FACE('',(#38),#433,.F.);
#444=ADVANCED_FACE('',(#39,#16),#22,.F.);
#445=ADVANCED_FACE('',(#40),#23,.T.);
#446=ADVANCED_FACE('',(#41),#24,.T.);
#447=ADVANCED_FACE('',(#42),#25,.T.);
#448=ADVANCED_FACE('',(#43),#26,.F.);
#449=ADVANCED_FACE('',(#44),#27,.T.);
#450=ADVANCED_FACE('',(#45,#17),#28,.T.);
#451=ADVANCED_FACE('',(#46),#29,.T.);
#452=ADVANCED_FACE('',(#47,#18,#19),#30,.F.);
#453=ADVANCED_FACE('',(#48),#31,.F.);
#454=ADVANCED_FACE('',(#49,#20),#32,.F.);
#455=ADVANCED_FACE('',(#50),#33,.F.);
#456=ADVANCED_FACE('',(#51),#434,.T.);
#457=ADVANCED_FACE('',(#52),#435,.F.);
#458=ADVANCED_FACE('',(#53),#436,.F.);
#459=ADVANCED_FACE('',(#54),#437,.F.);
#460=ADVANCED_FACE('',(#55),#438,.F.);
#461=ADVANCED_FACE('',(#56),#34,.T.);
#462=ADVANCED_FACE('',(#57),#439,.F.);
#463=ADVANCED_FACE('',(#58),#35,.T.);
#464=ADVANCED_FACE('',(#59),#440,.F.);
#465=CLOSED_SHELL('',(#441,#442,#443,#444,#445,#446,#447,#448,#449,#450,
#451,#452,#453,#454,#455,#456,#457,#458,#459,#460,#461,#462,#463,#464));
#466=AXIS2_PLACEMENT_3D('',#645,#511,#512);
#467=AXIS2_PLACEMENT_3D('',#646,#513,#514);
#468=AXIS2_PLACEMENT_3D('',#648,#515,#516);
#469=AXIS2_PLACEMENT_3D('',#651,#518,#519);
#470=AXIS2_PLACEMENT_3D('',#652,#520,#521);
#471=AXIS2_PLACEMENT_3D('',#654,#522,#523);
#472=AXIS2_PLACEMENT_3D('',#655,#524,#525);
#473=AXIS2_PLACEMENT_3D('',#657,#526,#527);
#474=AXIS2_PLACEMENT_3D('',#660,#529,#530);
#475=AXIS2_PLACEMENT_3D('',#661,#531,#532);
#476=AXIS2_PLACEMENT_3D('',#663,#533,#534);
#477=AXIS2_PLACEMENT_3D('',#664,#535,#536);
#478=AXIS2_PLACEMENT_3D('',#673,#541,#542);
#479=AXIS2_PLACEMENT_3D('',#682,#547,#548);
#480=AXIS2_PLACEMENT_3D('',#688,#552,#553);
#481=AXIS2_PLACEMENT_3D('',#696,#559,#560);
#482=AXIS2_PLACEMENT_3D('',#702,#564,#565);
#483=AXIS2_PLACEMENT_3D('',#711,#570,#571);
#484=AXIS2_PLACEMENT_3D('',#715,#573,#574);
#485=AXIS2_PLACEMENT_3D('',#718,#576,#577);
#486=AXIS2_PLACEMENT_3D('',#721,#578,#579);
#487=AXIS2_PLACEMENT_3D('',#723,#580,#581);
#488=AXIS2_PLACEMENT_3D('',#725,#582,#583);
#489=AXIS2_PLACEMENT_3D('',#726,#584,#585);
#490=AXIS2_PLACEMENT_3D('',#727,#586,#587);
#491=AXIS2_PLACEMENT_3D('',#731,#590,#591);
#492=AXIS2_PLACEMENT_3D('',#735,#594,#595);
#493=AXIS2_PLACEMENT_3D('',#739,#598,#599);
#494=AXIS2_PLACEMENT_3D('',#741,#600,#601);
#495=AXIS2_PLACEMENT_3D('',#745,#603,#604);
#496=AXIS2_PLACEMENT_3D('',#748,#606,#607);
#497=AXIS2_PLACEMENT_3D('',#752,#609,#610);
#498=AXIS2_PLACEMENT_3D('',#754,#611,#612);
#499=AXIS2_PLACEMENT_3D('',#756,#613,#614);
#500=AXIS2_PLACEMENT_3D('',#757,#615,#616);
#501=AXIS2_PLACEMENT_3D('',#758,#617,#618);
#502=AXIS2_PLACEMENT_3D('',#759,#619,#620);
#503=AXIS2_PLACEMENT_3D('',#762,#623,#624);
#504=AXIS2_PLACEMENT_3D('',#764,#626,#627);
#505=AXIS2_PLACEMENT_3D('',#766,#629,#630);
#506=AXIS2_PLACEMENT_3D('',#767,#631,#632);
#507=AXIS2_PLACEMENT_3D('',#769,#634,#635);
#508=AXIS2_PLACEMENT_3D('',#771,#637,#638);
#509=AXIS2_PLACEMENT_3D('',#773,#640,#641);
#510=AXIS2_PLACEMENT_3D('',#775,#643,#644);
#511=DIRECTION('axis',(0.,0.,1.));
#512=DIRECTION('refdir',(1.,0.,0.));
#513=DIRECTION('center_axis',(-1.,0.,0.));
#514=DIRECTION('ref_axis',(0.,1.,0.));
#515=DIRECTION('center_axis',(1.,0.,0.));
#516=DIRECTION('ref_axis',(0.,1.,0.));
#517=DIRECTION('',(1.,0.,0.));
#518=DIRECTION('center_axis',(-1.,0.,0.));
#519=DIRECTION('ref_axis',(0.,1.,0.));
#520=DIRECTION('center_axis',(1.,0.,0.));
#521=DIRECTION('ref_axis',(0.,1.,0.));
#522=DIRECTION('center_axis',(0.999999999999999,5.21540644745262E-8,0.));
#523=DIRECTION('ref_axis',(-5.21540644745262E-8,0.999999999999999,0.));
#524=DIRECTION('center_axis',(-1.,0.,0.));
#525=DIRECTION('ref_axis',(0.,1.,0.));
#526=DIRECTION('center_axis',(1.,0.,0.));
#527=DIRECTION('ref_axis',(0.,1.,0.));
#528=DIRECTION('',(1.,0.,0.));
#529=DIRECTION('center_axis',(-1.,0.,0.));
#530=DIRECTION('ref_axis',(0.,1.,0.));
#531=DIRECTION('center_axis',(1.,0.,0.));
#532=DIRECTION('ref_axis',(0.,1.,0.));
#533=DIRECTION('center_axis',(0.999999999999999,5.21540644745262E-8,0.));
#534=DIRECTION('ref_axis',(-5.21540644745262E-8,0.999999999999999,0.));
#535=DIRECTION('center_axis',(0.707106781186547,-0.707106781186548,0.));
#536=DIRECTION('ref_axis',(0.707106781186548,0.707106781186547,0.));
#537=DIRECTION('',(0.707106781186548,0.707106781186547,0.));
#538=DIRECTION('',(0.,0.,-1.));
#539=DIRECTION('',(0.707106781186548,0.707106781186547,0.));
#540=DIRECTION('',(0.,0.,1.));
#541=DIRECTION('center_axis',(0.999999999999998,-5.79489597569473E-8,0.));
#542=DIRECTION('ref_axis',(5.79489597569472E-8,0.999999999999998,0.));
#543=DIRECTION('',(5.79489597569472E-8,0.999999999999998,0.));
#544=DIRECTION('',(0.,0.,-1.));
#545=DIRECTION('',(5.79489597569472E-8,0.999999999999998,0.));
#546=DIRECTION('',(0.,0.,1.));
#547=DIRECTION('center_axis',(-0.707106781186548,-0.707106781186547,0.));
#548=DIRECTION('ref_axis',(0.707106781186547,-0.707106781186548,0.));
#549=DIRECTION('',(0.707106781186547,-0.707106781186548,0.));
#550=DIRECTION('',(0.707106781186547,-0.707106781186548,0.));
#551=DIRECTION('',(0.,0.,1.));
#552=DIRECTION('center_axis',(1.,-2.46716227694479E-16,0.));
#553=DIRECTION('ref_axis',(0.,0.,-1.));
#554=DIRECTION('',(0.,0.,1.));
#555=DIRECTION('',(0.,0.,1.));
#556=DIRECTION('',(0.,0.,1.));
#557=DIRECTION('',(-2.46716227694479E-16,-1.,0.));
#558=DIRECTION('',(2.46716227694479E-16,1.,0.));
#559=DIRECTION('center_axis',(-1.,0.,0.));
#560=DIRECTION('ref_axis',(0.,1.,0.));
#561=DIRECTION('',(8.88178419700126E-16,-1.,0.));
#562=DIRECTION('',(0.,0.,-1.));
#563=DIRECTION('',(0.,1.,0.));
#564=DIRECTION('center_axis',(0.,0.,1.));
#565=DIRECTION('ref_axis',(-1.,0.,0.));
#566=DIRECTION('',(5.21540644745262E-8,-0.999999999999999,0.));
#567=DIRECTION('',(1.,0.,0.));
#568=DIRECTION('',(2.46716227694479E-16,1.,0.));
#569=DIRECTION('',(2.53765258990067E-16,1.,0.));
#570=DIRECTION('center_axis',(0.,0.,1.));
#571=DIRECTION('ref_axis',(-1.,0.,0.));
#572=DIRECTION('',(1.30165328239479E-15,1.,0.));
#573=DIRECTION('center_axis',(0.,0.,1.));
#574=DIRECTION('ref_axis',(-0.906991893024661,-0.42114808083089,0.));
#575=DIRECTION('',(4.33884427464929E-16,-1.,0.));
#576=DIRECTION('center_axis',(0.,0.,1.));
#577=DIRECTION('ref_axis',(-1.,0.,0.));
#578=DIRECTION('center_axis',(0.,0.,-1.));
#579=DIRECTION('ref_axis',(0.687836722043863,0.725865444698915,0.));
#580=DIRECTION('center_axis',(0.,0.,1.));
#581=DIRECTION('ref_axis',(-0.687836722043861,-0.725865444698916,0.));
#582=DIRECTION('center_axis',(0.,0.,-1.));
#583=DIRECTION('ref_axis',(1.,-1.77635683940025E-15,0.));
#584=DIRECTION('center_axis',(0.,0.,-1.));
#585=DIRECTION('ref_axis',(-1.,0.,0.));
#586=DIRECTION('center_axis',(1.,-2.53765258990067E-16,0.));
#587=DIRECTION('ref_axis',(-2.53765258990067E-16,-1.,0.));
#588=DIRECTION('',(-2.53765258990067E-16,-1.,0.));
#589=DIRECTION('',(0.,0.,-1.));
#590=DIRECTION('center_axis',(-1.,0.,0.));
#591=DIRECTION('ref_axis',(0.,-1.,0.));
#592=DIRECTION('',(0.,0.,1.));
#593=DIRECTION('',(-2.46716227694479E-16,-1.,0.));
#594=DIRECTION('center_axis',(0.999999999999999,5.21540644745262E-8,0.));
#595=DIRECTION('ref_axis',(-5.21540644745262E-8,0.999999999999999,0.));
#596=DIRECTION('',(0.,0.,1.));
#597=DIRECTION('',(-5.21540644745262E-8,0.999999999999999,0.));
#598=DIRECTION('center_axis',(0.,0.,1.));
#599=DIRECTION('ref_axis',(-1.,0.,0.));
#600=DIRECTION('center_axis',(0.,0.,1.));
#601=DIRECTION('ref_axis',(-1.,0.,0.));
#602=DIRECTION('',(-4.33884427464929E-16,1.,0.));
#603=DIRECTION('center_axis',(0.,0.,1.));
#604=DIRECTION('ref_axis',(-0.906991893024661,-0.42114808083089,0.));
#605=DIRECTION('',(-1.30165328239479E-15,-1.,0.));
#606=DIRECTION('center_axis',(0.,0.,1.));
#607=DIRECTION('ref_axis',(-1.,0.,0.));
#608=DIRECTION('',(-1.,0.,0.));
#609=DIRECTION('center_axis',(0.,0.,1.));
#610=DIRECTION('ref_axis',(-1.,0.,0.));
#611=DIRECTION('center_axis',(0.,0.,1.));
#612=DIRECTION('ref_axis',(1.,-1.77635683940025E-15,0.));
#613=DIRECTION('center_axis',(0.,0.,-1.));
#614=DIRECTION('ref_axis',(-0.687836722043861,-0.725865444698916,0.));
#615=DIRECTION('center_axis',(0.,0.,1.));
#616=DIRECTION('ref_axis',(0.687836722043863,0.725865444698915,0.));
#617=DIRECTION('center_axis',(0.,1.,0.));
#618=DIRECTION('ref_axis',(-1.,0.,0.));
#619=DIRECTION('center_axis',(0.,0.,-1.));
#620=DIRECTION('ref_axis',(-0.687836722043861,-0.725865444698916,0.));
#621=DIRECTION('',(0.,0.,-1.));
#622=DIRECTION('',(0.,0.,-1.));
#623=DIRECTION('center_axis',(0.,0.,-1.));
#624=DIRECTION('ref_axis',(1.,-1.77635683940025E-15,0.));
#625=DIRECTION('',(0.,0.,-1.));
#626=DIRECTION('center_axis',(0.,0.,-1.));
#627=DIRECTION('ref_axis',(-1.,0.,0.));
#628=DIRECTION('',(0.,0.,-1.));
#629=DIRECTION('center_axis',(0.,0.,-1.));
#630=DIRECTION('ref_axis',(0.687836722043863,0.725865444698915,0.));
#631=DIRECTION('center_axis',(0.,0.,-1.));
#632=DIRECTION('ref_axis',(-1.,0.,0.));
#633=DIRECTION('',(0.,0.,-1.));
#634=DIRECTION('center_axis',(1.,-1.30165328239479E-15,0.));
#635=DIRECTION('ref_axis',(-1.30165328239479E-15,-1.,0.));
#636=DIRECTION('',(0.,0.,-1.));
#637=DIRECTION('center_axis',(0.,0.,-1.));
#638=DIRECTION('ref_axis',(-0.906991893024661,-0.42114808083089,0.));
#639=DIRECTION('',(0.,0.,-1.));
#640=DIRECTION('center_axis',(-1.,-4.33884427464929E-16,0.));
#641=DIRECTION('ref_axis',(-4.33884427464929E-16,1.,0.));
#642=DIRECTION('',(0.,0.,-1.));
#643=DIRECTION('center_axis',(0.,0.,-1.));
#644=DIRECTION('ref_axis',(-1.,0.,0.));
#645=CARTESIAN_POINT('',(0.,0.,0.));
#646=CARTESIAN_POINT('Origin',(30.0000005215406,-37.7,-5.5));
#647=CARTESIAN_POINT('',(-29.9999994784594,-39.1,-5.5));
#648=CARTESIAN_POINT('Origin',(-29.9999994784594,-37.7,-5.5));
#649=CARTESIAN_POINT('',(30.0000005215406,-39.1,-5.5));
#650=CARTESIAN_POINT('',(30.0000005215406,-39.1,-5.5));
#651=CARTESIAN_POINT('Origin',(30.0000005215406,-37.7,-5.5));
#652=CARTESIAN_POINT('Origin',(-29.9999994784594,-37.7,-5.5));
#653=CARTESIAN_POINT('',(-30.0000004693866,-36.,-5.5));
#654=CARTESIAN_POINT('Origin',(-30.0000003807247,-37.7,-5.5));
#655=CARTESIAN_POINT('Origin',(30.0000005215406,-37.7,-14.5));
#656=CARTESIAN_POINT('',(-29.9999994784594,-39.1,-14.5));
#657=CARTESIAN_POINT('Origin',(-29.9999994784594,-37.7,-14.5));
#658=CARTESIAN_POINT('',(30.0000005215406,-39.1,-14.5));
#659=CARTESIAN_POINT('',(30.0000005215406,-39.1,-14.5));
#660=CARTESIAN_POINT('Origin',(30.0000005215406,-37.7,-14.5));
#661=CARTESIAN_POINT('Origin',(-29.9999994784594,-37.7,-14.5));
#662=CARTESIAN_POINT('',(-30.0000004693866,-36.,-14.5));
#663=CARTESIAN_POINT('Origin',(-30.0000003807247,-37.7,-14.5));
#664=CARTESIAN_POINT('Origin',(-35.0000004693866,-23.,-19.5));
#665=CARTESIAN_POINT('',(-35.0000004693866,-23.,-19.5));
#666=CARTESIAN_POINT('',(-30.0000004693866,-18.,-19.5));
#667=CARTESIAN_POINT('',(-35.0000004693866,-23.,-19.5));
#668=CARTESIAN_POINT('',(-30.0000004693866,-18.,-0.5));
#669=CARTESIAN_POINT('',(-30.0000004693866,-18.,-19.5));
#670=CARTESIAN_POINT('',(-35.0000004693866,-23.,-0.5));
#671=CARTESIAN_POINT('',(-35.0000004693866,-23.,-0.5));
#672=CARTESIAN_POINT('',(-35.0000004693866,-23.,-19.5));
#673=CARTESIAN_POINT('Origin',(34.9999991887146,-22.999998667174,-19.5));
#674=CARTESIAN_POINT('',(34.9999991887146,-22.999998667174,-19.5));
#675=CARTESIAN_POINT('',(34.9999994784594,-18.,-19.5));
#676=CARTESIAN_POINT('',(34.9999991887146,-22.999998667174,-19.5));
#677=CARTESIAN_POINT('',(34.9999994784594,-18.,-0.5));
#678=CARTESIAN_POINT('',(35.0000005215406,-18.,-10.));
#679=CARTESIAN_POINT('',(34.9999991887146,-22.999998667174,-0.5));
#680=CARTESIAN_POINT('',(34.9999991887146,-22.999998667174,-0.5));
#681=CARTESIAN_POINT('',(34.9999991887146,-22.999998667174,-19.5));
#682=CARTESIAN_POINT('Origin',(30.0000005215406,-18.,-19.5));
#683=CARTESIAN_POINT('',(30.0000005215406,-18.,-19.5));
#684=CARTESIAN_POINT('',(30.0000005215406,-18.,-19.5));
#685=CARTESIAN_POINT('',(30.0000005215406,-18.,-0.5));
#686=CARTESIAN_POINT('',(30.0000005215406,-18.,-0.5));
#687=CARTESIAN_POINT('',(30.0000005215406,-18.,-19.5));
#688=CARTESIAN_POINT('Origin',(-30.0000004693866,-36.,-0.5));
#689=CARTESIAN_POINT('',(-30.0000004693866,-36.,-19.5));
#690=CARTESIAN_POINT('',(-30.0000004693866,-36.,-19.5));
#691=CARTESIAN_POINT('',(-30.0000004693866,-36.,-19.5));
#692=CARTESIAN_POINT('',(-30.0000004693866,-36.,-0.5));
#693=CARTESIAN_POINT('',(-30.0000004693866,-36.,-19.5));
#694=CARTESIAN_POINT('',(-30.0000004693866,-31.7500001303852,-0.5));
#695=CARTESIAN_POINT('',(-30.0000004693866,-31.7500001303852,-19.5));
#696=CARTESIAN_POINT('Origin',(-35.0000005215406,-35.0000005215406,-0.5));
#697=CARTESIAN_POINT('',(-35.0000005215406,0.,-0.5));
#698=CARTESIAN_POINT('',(-35.0000004693866,-18.,-0.5));
#699=CARTESIAN_POINT('',(-35.0000005215406,0.,-19.5));
#700=CARTESIAN_POINT('',(-35.0000005215406,0.,-0.5));
#701=CARTESIAN_POINT('',(-35.0000005215406,0.,-19.5));
#702=CARTESIAN_POINT('Origin',(0.,-27.5000002607703,-0.5));
#703=CARTESIAN_POINT('',(-30.0000001564622,-42.,-0.5));
#704=CARTESIAN_POINT('',(-30.0000005345791,-34.7500009126962,-0.499999999999999));
#705=CARTESIAN_POINT('',(30.0000005215406,-42.,-0.5));
#706=CARTESIAN_POINT('',(15.0000002607703,-42.,-0.5));
#707=CARTESIAN_POINT('',(30.0000005215406,-31.7500001303852,-0.5));
#708=CARTESIAN_POINT('',(35.0000005215406,0.,-0.5));
#709=CARTESIAN_POINT('',(35.0000005215406,-35.0000005215406,-0.5));
#710=CARTESIAN_POINT('',(31.2912203093508,-15.6799096955154,-0.5));
#711=CARTESIAN_POINT('Origin',(0.,0.,-0.5));
#712=CARTESIAN_POINT('',(31.2912203093508,-14.5296087886658,-0.5));
#713=CARTESIAN_POINT('',(31.2912203093508,-35.0000005215407,-0.5));
#714=CARTESIAN_POINT('',(-31.2912203093508,-14.5296087886657,-0.5));
#715=CARTESIAN_POINT('Origin',(0.,0.,-0.5));
#716=CARTESIAN_POINT('',(-31.2912203093508,-15.6799096955153,-0.5));
#717=CARTESIAN_POINT('',(-31.2912203093508,-14.5296087886657,-0.5));
#718=CARTESIAN_POINT('Origin',(0.,0.,-0.5));
#719=CARTESIAN_POINT('',(-24.1715350057294,-25.3127819880519,-0.5));
#720=CARTESIAN_POINT('',(-24.0716285042412,-25.4024869113399,-0.5));
#721=CARTESIAN_POINT('Origin',(-25.7912203093508,-27.2171505230872,-0.5));
#722=CARTESIAN_POINT('',(24.0716285042411,-25.4024869113399,-0.5));
#723=CARTESIAN_POINT('Origin',(0.,0.,-0.5));
#724=CARTESIAN_POINT('',(24.1715350057302,-25.3127819880511,-0.5));
#725=CARTESIAN_POINT('Origin',(25.7912203093508,-27.2171505230872,-0.5));
#726=CARTESIAN_POINT('Origin',(0.,0.,-0.5));
#727=CARTESIAN_POINT('Origin',(35.0000005215406,0.,-0.5));
#728=CARTESIAN_POINT('',(35.0000005215406,0.,-19.5));
#729=CARTESIAN_POINT('',(35.0000005215406,-35.0000005215406,-19.5));
#730=CARTESIAN_POINT('',(35.0000005215406,0.,-0.5));
#731=CARTESIAN_POINT('Origin',(30.0000005215406,-36.,-19.5));
#732=CARTESIAN_POINT('',(30.0000005215406,-42.,-19.5));
#733=CARTESIAN_POINT('',(30.0000005215406,-42.,-19.5));
#734=CARTESIAN_POINT('',(30.0000005215406,-31.7500001303852,-19.5));
#735=CARTESIAN_POINT('Origin',(-30.0000001564622,-42.,-19.5));
#736=CARTESIAN_POINT('',(-30.0000001564622,-42.,-19.5));
#737=CARTESIAN_POINT('',(-30.0000001564622,-42.,-19.5));
#738=CARTESIAN_POINT('',(-30.0000005345791,-34.7500009126962,-19.5));
#739=CARTESIAN_POINT('Origin',(0.,-27.5000002607703,-19.5));
#740=CARTESIAN_POINT('',(-31.2912203093508,-15.6799096955153,-19.5));
#741=CARTESIAN_POINT('Origin',(0.,0.,-19.5));
#742=CARTESIAN_POINT('',(-31.2912203093508,-14.5296087886657,-19.5));
#743=CARTESIAN_POINT('',(-31.2912203093508,-14.5296087886657,-19.5));
#744=CARTESIAN_POINT('',(31.2912203093508,-14.5296087886658,-19.5));
#745=CARTESIAN_POINT('Origin',(0.,0.,-19.5));
#746=CARTESIAN_POINT('',(31.2912203093508,-15.6799096955154,-19.5));
#747=CARTESIAN_POINT('',(31.2912203093508,-35.0000005215407,-19.5));
#748=CARTESIAN_POINT('Origin',(0.,0.,-19.5));
#749=CARTESIAN_POINT('',(15.0000002607703,-42.,-19.5));
#750=CARTESIAN_POINT('',(-24.1715350057294,-25.3127819880519,-19.5));
#751=CARTESIAN_POINT('',(24.1715350057302,-25.3127819880511,-19.5));
#752=CARTESIAN_POINT('Origin',(0.,0.,-19.5));
#753=CARTESIAN_POINT('',(24.0716285042411,-25.4024869113399,-19.5));
#754=CARTESIAN_POINT('Origin',(25.7912203093508,-27.2171505230872,-19.5));
#755=CARTESIAN_POINT('',(-24.0716285042412,-25.4024869113399,-19.5));
#756=CARTESIAN_POINT('Origin',(0.,0.,-19.5));
#757=CARTESIAN_POINT('Origin',(-25.7912203093508,-27.2171505230872,-19.5));
#758=CARTESIAN_POINT('Origin',(30.0000005215406,-42.,-19.5));
#759=CARTESIAN_POINT('Origin',(0.,0.,-0.5));
#760=CARTESIAN_POINT('',(-24.0716285042412,-25.4024869113399,-0.5));
#761=CARTESIAN_POINT('',(24.0716285042411,-25.4024869113399,-0.5));
#762=CARTESIAN_POINT('Origin',(25.7912203093508,-27.2171505230872,-0.5));
#763=CARTESIAN_POINT('',(24.1715350057302,-25.3127819880511,-0.5));
#764=CARTESIAN_POINT('Origin',(0.,0.,-0.5));
#765=CARTESIAN_POINT('',(-24.1715350057294,-25.3127819880519,-0.5));
#766=CARTESIAN_POINT('Origin',(-25.7912203093508,-27.2171505230872,-0.5));
#767=CARTESIAN_POINT('Origin',(0.,0.,-0.5));
#768=CARTESIAN_POINT('',(31.2912203093508,-15.6799096955154,-0.5));
#769=CARTESIAN_POINT('Origin',(31.2912203093508,-14.5296087886658,-0.5));
#770=CARTESIAN_POINT('',(31.2912203093508,-14.5296087886658,-0.5));
#771=CARTESIAN_POINT('Origin',(0.,0.,-0.5));
#772=CARTESIAN_POINT('',(-31.2912203093508,-14.5296087886657,-0.5));
#773=CARTESIAN_POINT('Origin',(-31.2912203093508,-15.6799096955153,-0.5));
#774=CARTESIAN_POINT('',(-31.2912203093508,-15.6799096955153,-0.5));
#775=CARTESIAN_POINT('Origin',(0.,0.,-0.5));
#776=UNCERTAINTY_MEASURE_WITH_UNIT(LENGTH_MEASURE(0.01),#780,
'DISTANCE_ACCURACY_VALUE',
'Maximum model space distance between geometric entities at asserted c
onnectivities');
#777=UNCERTAINTY_MEASURE_WITH_UNIT(LENGTH_MEASURE(0.01),#780,
'DISTANCE_ACCURACY_VALUE',
'Maximum model space distance between geometric entities at asserted c
onnectivities');
#778=(
GEOMETRIC_REPRESENTATION_CONTEXT(3)
GLOBAL_UNCERTAINTY_ASSIGNED_CONTEXT((#776))
GLOBAL_UNIT_ASSIGNED_CONTEXT((#780,#781,#782))
REPRESENTATION_CONTEXT('','3D')
);
#779=(
GEOMETRIC_REPRESENTATION_CONTEXT(3)
GLOBAL_UNCERTAINTY_ASSIGNED_CONTEXT((#777))
GLOBAL_UNIT_ASSIGNED_CONTEXT((#780,#781,#782))
REPRESENTATION_CONTEXT('','3D')
);
#780=(
LENGTH_UNIT()
NAMED_UNIT(*)
SI_UNIT(.MILLI.,.METRE.)
);
#781=(
NAMED_UNIT(*)
PLANE_ANGLE_UNIT()
SI_UNIT($,.RADIAN.)
);
#782=(
NAMED_UNIT(*)
SI_UNIT($,.STERADIAN.)
SOLID_ANGLE_UNIT()
);
#783=SHAPE_DEFINITION_REPRESENTATION(#784,#785);
#784=PRODUCT_DEFINITION_SHAPE('',$,#787);
#785=SHAPE_REPRESENTATION('',(#466),#778);
#786=PRODUCT_DEFINITION_CONTEXT('part definition',#791,'design');
#787=PRODUCT_DEFINITION('J4','J4 v16',#788,#786);
#788=PRODUCT_DEFINITION_FORMATION('',$,#793);
#789=PRODUCT_RELATED_PRODUCT_CATEGORY('J4 v16','J4 v16',(#793));
#790=APPLICATION_PROTOCOL_DEFINITION('international standard',
'automotive_design',2009,#791);
#791=APPLICATION_CONTEXT(
'Core Data for Automotive Mechanical Design Process');
#792=PRODUCT_CONTEXT('part definition',#791,'mechanical');
#793=PRODUCT('J4','J4 v16',$,(#792));
#794=PRESENTATION_STYLE_ASSIGNMENT((#795));
#795=SURFACE_STYLE_USAGE(.BOTH.,#796);
#796=SURFACE_SIDE_STYLE('',(#797));
#797=SURFACE_STYLE_FILL_AREA(#798);
#798=FILL_AREA_STYLE('Steel - Satin',(#799));
#799=FILL_AREA_STYLE_COLOUR('Steel - Satin',#800);
#800=COLOUR_RGB('Steel - Satin',0.627450980392157,0.627450980392157,0.627450980392157);
ENDSEC;
END-ISO-10303-21;
